<?xml version="1.0" standalone="no"?>
<!DOCTYPE svg PUBLIC "-//W3C//DTD SVG 1.1//EN" "http://www.w3.org/Graphics/SVG/1.1/DTD/svg11.dtd" >
<svg xmlns="http://www.w3.org/2000/svg" xmlns:xlink="http://www.w3.org/1999/xlink" version="1.1">
<metadata></metadata>
<defs>
<font id="my_kids_handwrittenregular" horiz-adv-x="0" >
<font-face units-per-em="2048" ascent="1638" descent="-410" />
<missing-glyph horiz-adv-x="464" />
<glyph />
<glyph />
<glyph horiz-adv-x="682" />
<glyph unicode="&#xa;" />
<glyph unicode="&#xd;" />
<glyph unicode=" "  horiz-adv-x="464" />
<glyph unicode="&#x09;" horiz-adv-x="464" />
<glyph unicode="&#xa0;" horiz-adv-x="464" />
<glyph unicode="." horiz-adv-x="385" d="M115 45q-27 46 1 92t82 43q36 -1 61 -28t24 -63t-26 -62t-61 -27q-54 -2 -81 45z" />
<glyph unicode="A" horiz-adv-x="1353" d="M45 746q3 28 26 48q26 23 28 63q16 162 58 334q47 194 170 352q123 155 317 197q39 9 78 9q74 0 147 -32q130 -57 214 -165q113 -145 153 -327q38 -161 38 -336q-1 -10 -1 -21q0 -43 20 -85q10 -18 10 -35q0 -20 -14 -40q-18 -29 -20 -63q-2 -22 -7.5 -96t-7 -95.5 t-7 -95.5t-5.5 -96t-4 -96l-3 -78q1 -11 1 -18q1 -13 0 -45v-51q1 -6 1 -12q0 -27 -12 -54q-11 -25 -34.5 -40t-51.5 -14t-50.5 16.5t-33.5 41.5q-11 31 -10 59q1 35 2.5 106t2.5 106q4 135 26 400q1 7 2 19q4 51 -3 59q-9 8 -53 7q-15 -1 -24 -1q-109 -3 -327 -11v1 q-246 -6 -369 -10q-23 -1 -29 -6t-7 -29q0 -3 -0.5 -9t-0.5 -9q-18 -250 -23 -642q0 -33 -2 -49q-4 -28 -11 -47q-8 -22 -28 -35t-43 -12q-25 2 -45 17.5t-26 39.5q-3 14 -5 42q-13 162 -13 320q0 61 2 122q2 189 10 267q2 10 2 19q0 32 -21 59q-20 23 -17 51zM289 858 q-1 -14 5 -20t20 -5l369 12v2l333 6q29 0 43 1q27 1 28 24q1 0 1 9l-1 9q-3 118 -22 229q-21 125 -82 240q-51 93 -142 155q-46 32 -101 38q-12 1 -23 1q-43 0 -83 -17q-96 -36 -160 -116q-62 -76 -99 -173q-41 -106 -60 -215q-10 -60 -26 -180z" />
<glyph unicode="&#xc4;" horiz-adv-x="1353" d="M45 746q3 28 26 48q26 23 28 63q16 162 58 334q47 194 170 352q123 155 317 197q39 9 78 9q74 0 147 -32q130 -57 214 -165q113 -145 153 -327q38 -161 38 -336q-1 -10 -1 -21q0 -43 20 -85q10 -18 10 -35q0 -20 -14 -40q-18 -29 -20 -63q-2 -22 -7.5 -96t-7 -95.5 t-7 -95.5t-5.5 -96t-4 -96l-3 -78q1 -11 1 -18q1 -13 0 -45v-51q1 -6 1 -12q0 -27 -12 -54q-11 -25 -34.5 -40t-51.5 -14t-50.5 16.5t-33.5 41.5q-11 31 -10 59q1 35 2.5 106t2.5 106q4 135 26 400q1 7 2 19q4 51 -3 59q-9 8 -53 7q-15 -1 -24 -1q-109 -3 -327 -11v1 q-246 -6 -369 -10q-23 -1 -29 -6t-7 -29q0 -3 -0.5 -9t-0.5 -9q-18 -250 -23 -642q0 -33 -2 -49q-4 -28 -11 -47q-8 -22 -28 -35t-43 -12q-25 2 -45 17.5t-26 39.5q-3 14 -5 42q-13 162 -13 320q0 61 2 122q2 189 10 267q2 10 2 19q0 32 -21 59q-20 23 -17 51zM289 858 q-1 -14 5 -20t20 -5l369 12v2l333 6q29 0 43 1q27 1 28 24q1 0 1 9l-1 9q-3 118 -22 229q-21 125 -82 240q-51 93 -142 155q-46 32 -101 38q-12 1 -23 1q-43 0 -83 -17q-96 -36 -160 -116q-62 -76 -99 -173q-41 -106 -60 -215q-10 -60 -26 -180z" />
<glyph unicode="&#xc3;" horiz-adv-x="1353" d="M45 746q3 28 26 48q26 23 28 63q16 162 58 334q47 194 170 352q123 155 317 197q39 9 78 9q74 0 147 -32q130 -57 214 -165q113 -145 153 -327q38 -161 38 -336q-1 -10 -1 -21q0 -43 20 -85q10 -18 10 -35q0 -20 -14 -40q-18 -29 -20 -63q-2 -22 -7.5 -96t-7 -95.5 t-7 -95.5t-5.5 -96t-4 -96l-3 -78q1 -11 1 -18q1 -13 0 -45v-51q1 -6 1 -12q0 -27 -12 -54q-11 -25 -34.5 -40t-51.5 -14t-50.5 16.5t-33.5 41.5q-11 31 -10 59q1 35 2.5 106t2.5 106q4 135 26 400q1 7 2 19q4 51 -3 59q-9 8 -53 7q-15 -1 -24 -1q-109 -3 -327 -11v1 q-246 -6 -369 -10q-23 -1 -29 -6t-7 -29q0 -3 -0.5 -9t-0.5 -9q-18 -250 -23 -642q0 -33 -2 -49q-4 -28 -11 -47q-8 -22 -28 -35t-43 -12q-25 2 -45 17.5t-26 39.5q-3 14 -5 42q-13 162 -13 320q0 61 2 122q2 189 10 267q2 10 2 19q0 32 -21 59q-20 23 -17 51zM289 858 q-1 -14 5 -20t20 -5l369 12v2l333 6q29 0 43 1q27 1 28 24q1 0 1 9l-1 9q-3 118 -22 229q-21 125 -82 240q-51 93 -142 155q-46 32 -101 38q-12 1 -23 1q-43 0 -83 -17q-96 -36 -160 -116q-62 -76 -99 -173q-41 -106 -60 -215q-10 -60 -26 -180z" />
<glyph unicode="&#xc2;" horiz-adv-x="1353" d="M45 746q3 28 26 48q26 23 28 63q16 162 58 334q47 194 170 352q123 155 317 197q39 9 78 9q74 0 147 -32q130 -57 214 -165q113 -145 153 -327q38 -161 38 -336q-1 -10 -1 -21q0 -43 20 -85q10 -18 10 -35q0 -20 -14 -40q-18 -29 -20 -63q-2 -22 -7.5 -96t-7 -95.5 t-7 -95.5t-5.5 -96t-4 -96l-3 -78q1 -11 1 -18q1 -13 0 -45v-51q1 -6 1 -12q0 -27 -12 -54q-11 -25 -34.5 -40t-51.5 -14t-50.5 16.5t-33.5 41.5q-11 31 -10 59q1 35 2.5 106t2.5 106q4 135 26 400q1 7 2 19q4 51 -3 59q-9 8 -53 7q-15 -1 -24 -1q-109 -3 -327 -11v1 q-246 -6 -369 -10q-23 -1 -29 -6t-7 -29q0 -3 -0.5 -9t-0.5 -9q-18 -250 -23 -642q0 -33 -2 -49q-4 -28 -11 -47q-8 -22 -28 -35t-43 -12q-25 2 -45 17.5t-26 39.5q-3 14 -5 42q-13 162 -13 320q0 61 2 122q2 189 10 267q2 10 2 19q0 32 -21 59q-20 23 -17 51zM289 858 q-1 -14 5 -20t20 -5l369 12v2l333 6q29 0 43 1q27 1 28 24q1 0 1 9l-1 9q-3 118 -22 229q-21 125 -82 240q-51 93 -142 155q-46 32 -101 38q-12 1 -23 1q-43 0 -83 -17q-96 -36 -160 -116q-62 -76 -99 -173q-41 -106 -60 -215q-10 -60 -26 -180z" />
<glyph unicode="&#xc1;" horiz-adv-x="1353" d="M45 746q3 28 26 48q26 23 28 63q16 162 58 334q47 194 170 352q123 155 317 197q39 9 78 9q74 0 147 -32q130 -57 214 -165q113 -145 153 -327q38 -161 38 -336q-1 -10 -1 -21q0 -43 20 -85q10 -18 10 -35q0 -20 -14 -40q-18 -29 -20 -63q-2 -22 -7.5 -96t-7 -95.5 t-7 -95.5t-5.5 -96t-4 -96l-3 -78q1 -11 1 -18q1 -13 0 -45v-51q1 -6 1 -12q0 -27 -12 -54q-11 -25 -34.5 -40t-51.5 -14t-50.5 16.5t-33.5 41.5q-11 31 -10 59q1 35 2.5 106t2.5 106q4 135 26 400q1 7 2 19q4 51 -3 59q-9 8 -53 7q-15 -1 -24 -1q-109 -3 -327 -11v1 q-246 -6 -369 -10q-23 -1 -29 -6t-7 -29q0 -3 -0.5 -9t-0.5 -9q-18 -250 -23 -642q0 -33 -2 -49q-4 -28 -11 -47q-8 -22 -28 -35t-43 -12q-25 2 -45 17.5t-26 39.5q-3 14 -5 42q-13 162 -13 320q0 61 2 122q2 189 10 267q2 10 2 19q0 32 -21 59q-20 23 -17 51zM289 858 q-1 -14 5 -20t20 -5l369 12v2l333 6q29 0 43 1q27 1 28 24q1 0 1 9l-1 9q-3 118 -22 229q-21 125 -82 240q-51 93 -142 155q-46 32 -101 38q-12 1 -23 1q-43 0 -83 -17q-96 -36 -160 -116q-62 -76 -99 -173q-41 -106 -60 -215q-10 -60 -26 -180z" />
<glyph unicode="&#xc0;" horiz-adv-x="1353" d="M45 746q3 28 26 48q26 23 28 63q16 162 58 334q47 194 170 352q123 155 317 197q39 9 78 9q74 0 147 -32q130 -57 214 -165q113 -145 153 -327q38 -161 38 -336q-1 -10 -1 -21q0 -43 20 -85q10 -18 10 -35q0 -20 -14 -40q-18 -29 -20 -63q-2 -22 -7.5 -96t-7 -95.5 t-7 -95.5t-5.5 -96t-4 -96l-3 -78q1 -11 1 -18q1 -13 0 -45v-51q1 -6 1 -12q0 -27 -12 -54q-11 -25 -34.5 -40t-51.5 -14t-50.5 16.5t-33.5 41.5q-11 31 -10 59q1 35 2.5 106t2.5 106q4 135 26 400q1 7 2 19q4 51 -3 59q-9 8 -53 7q-15 -1 -24 -1q-109 -3 -327 -11v1 q-246 -6 -369 -10q-23 -1 -29 -6t-7 -29q0 -3 -0.5 -9t-0.5 -9q-18 -250 -23 -642q0 -33 -2 -49q-4 -28 -11 -47q-8 -22 -28 -35t-43 -12q-25 2 -45 17.5t-26 39.5q-3 14 -5 42q-13 162 -13 320q0 61 2 122q2 189 10 267q2 10 2 19q0 32 -21 59q-20 23 -17 51zM289 858 q-1 -14 5 -20t20 -5l369 12v2l333 6q29 0 43 1q27 1 28 24q1 0 1 9l-1 9q-3 118 -22 229q-21 125 -82 240q-51 93 -142 155q-46 32 -101 38q-12 1 -23 1q-43 0 -83 -17q-96 -36 -160 -116q-62 -76 -99 -173q-41 -106 -60 -215q-10 -60 -26 -180z" />
<glyph unicode="B" horiz-adv-x="1271" d="M18 240q12 66 53 114q27 33 69 58q22 12 46 12q9 0 18 -2q27 -5 45 -37.5t3 -57.5q-5 -7 -13.5 -20.5t-15.5 -24.5t-13 -21q-16 -24 -16 -52q0 -14 4 -30q13 -44 52 -64q5 -3 11.5 -0.5t7.5 8.5q1 12 1 36v25q0 234 17 678l18 315q2 32 3 58q-17 -21 -25 -52 q-8 -24 -29.5 -37t-46.5 -10q-25 2 -44 18t-23 41q-4 23 -4 44q0 33 10 64q22 72 70 133q35 45 83 97q35 29 35 73q0 24 8 41q10 36 45 51q15 6 31 6q18 0 36 -9q29 -17 55 3q112 70 233 99q57 15 113 15q66 0 132 -20q213 -68 255 -295q8 -48 8 -95q0 -121 -53 -237 q-74 -165 -196 -290q-96 -102 -211 -181q-5 -3 -48 -35q10 -6 34 -19.5t36 -20.5q85 -47 141.5 -125.5t76.5 -173.5q10 -43 10 -89q0 -39 -7 -79q-17 -89 -78 -148q-72 -72 -169 -104q-127 -46 -262 -46h-17q-144 3 -277 59q-71 29 -129 79q-55 46 -75 114q-13 42 -12 84 q-1 25 4 50zM432 83q-2 -23 3.5 -30t27.5 -8h61h18q83 0 160 25q51 14 93 44q29 20 45 52q12 25 13 52q0 7 -1 15q-2 63 -32 119t-82 92q-69 47 -153 70q-34 9 -69 9q-17 0 -34 -2q-14 -1 -19 -7t-7 -20q-1 -6 -1 -18q-4 -66 -11.5 -197t-11.5 -196zM470 753q0 -5 2 -17 q15 -6 30 4q259 139 397 302q74 84 121 188q41 87 41 180q0 16 -1 32q-6 73 -49 121t-111 58q-20 3 -40 3l-68 -8q-143 -37 -265 -127q-25 -16 -23 -46q-2 -105 -5 -157q-10 -197 -29 -533z" />
<glyph unicode="C" horiz-adv-x="1261" d="M48 483q-11 80 -11 159q0 215 82 418q76 204 218 375q93 108 216 184q125 80 267 93q25 3 50 3q132 0 240 -86q66 -49 94 -128q16 -45 16 -90q0 -34 -9 -69q-16 -81 -75 -140t-140 -76q-21 -6 -42 -6q-33 0 -64 16q-22 10 -37 30q-15 18 -17 41.5t11 43.5q11 22 32 32 t44 4q22 -8 45 -2t37 24q37 32 37 79q0 7 -1 14q-3 31 -21 56t-46 39q-59 28 -119 28q-32 0 -64 -8q-85 -19 -160 -71q-137 -92 -222 -228q-137 -208 -175 -455q-7 -59 -7 -127v-24q0 -136 51 -267q35 -92 105 -161q105 -105 256 -107h11q100 -1 194 35q99 38 177 109 q13 11 35.5 34t29.5 30l12 13q11 12 18 17q19 16 44.5 17.5t45.5 -12.5q21 -14 28 -38.5t-3 -47.5q-9 -23 -23 -43q-187 -262 -493 -296q-37 -5 -74 -5q-117 0 -227 49q-178 82 -268 246q-78 138 -98 298z" />
<glyph unicode="D" horiz-adv-x="1566" d="M29 1119q37 398 368 602q123 78 268 107q63 14 126 14l130 -15q128 -29 231 -108q101 -77 174 -184q147 -211 183 -464q16 -96 16 -191q0 -231 -94 -450q-181 -423 -648 -531q-82 -18 -165 -18q-56 0 -112 8q-28 5 -50 -13q-31 -22 -59 -22q-11 0 -23 4q-38 12 -55 64 q-6 24 -28 36q-37 20 -66 53q-32 35 -46 84q-9 26 -1.5 51t28.5 42q20 16 45 15.5t45 -16.5q15 -10 22 -8q5 4 7.5 10.5t3 10.5t0.5 12.5v11.5q20 347 27 575q0 3 18 430q3 69 7 200q0 2 0.5 7.5t0.5 8.5t-1.5 6.5t-5.5 5.5q-4 4 -9.5 1t-7 -4t-6 -7t-5.5 -7 q-75 -83 -115 -190q-41 -112 -42 -233q0 -20 2 -41q2 -28 2 -43q0 -29 -18.5 -50.5t-46.5 -25.5q-29 -4 -52.5 13t-28.5 45q-22 76 -22 152q0 26 3 52zM506 97q-2 -19 2.5 -25t20.5 -9q27 -5 60 -7h19q89 0 172 25q367 105 496 457q42 122 54 242q7 57 7 113q0 101 -22 201 q-34 156 -116 291q-48 84 -121 151q-103 98 -242 115q-21 2 -42 2q-96 0 -189 -38q-34 -13 -39.5 -21.5t-2.5 -43.5q5 -65 5 -131q0 -44 -2 -87q-2 -46 -6 -190t-9 -222q-1 -33 -6 -136.5t-7 -160.5q-9 -253 -32 -526z" />
<glyph unicode="E" horiz-adv-x="1226" d="M73 477q7 184 39 550q12 137 31 380q0 3 9 85q2 10 2 21q0 31 -18 59q-16 24 -10.5 52t29.5 45q13 10 27 14q27 8 53 9q137 8 461 25v-2q68 2 203 7t203 8q19 1 36 1q26 0 48 -2q25 -1 44 -17.5t24 -41.5q5 -26 -9 -50t-39 -32q-68 -23 -148 -29q-339 -40 -671 -41h-9.5 h-12h-9.5q-23 -1 -27.5 -6.5t-6.5 -30.5q-4 -86 -13 -257t-13 -257q-1 -12 -4 -43t-4 -48q-1 -36 4.5 -42.5t39.5 -8.5q21 -1 159 -6t172 -7q42 -4 72 -11q52 -13 52 -71q0 -8 -1 -16q-10 -25 -32.5 -41t-50.5 -17q-152 -13 -299 -13q-52 0 -104 2q-19 1 -24 -3.5t-7 -22.5 q-7 -88 -7 -179q0 -61 3 -123q3 -52 16 -96q10 -41 38 -72.5t67 -45.5q41 -17 92 -28q103 -22 198 -22q15 0 31 1q80 4 121 4q30 3 54 -15.5t28 -48.5v-9q0 -50 -60 -71q-50 -17 -100 -23q-82 -8 -151 -8q-115 0 -198 21q-35 9 -58 16q-216 71 -257 309q-14 92 -14 187 q0 31 1 61z" />
<glyph unicode="&#xca;" horiz-adv-x="1226" d="M73 477q7 184 39 550q12 137 31 380q0 3 9 85q2 10 2 21q0 31 -18 59q-16 24 -10.5 52t29.5 45q13 10 27 14q27 8 53 9q137 8 461 25v-2q68 2 203 7t203 8q19 1 36 1q26 0 48 -2q25 -1 44 -17.5t24 -41.5q5 -26 -9 -50t-39 -32q-68 -23 -148 -29q-339 -40 -671 -41h-9.5 h-12h-9.5q-23 -1 -27.5 -6.5t-6.5 -30.5q-4 -86 -13 -257t-13 -257q-1 -12 -4 -43t-4 -48q-1 -36 4.5 -42.5t39.5 -8.5q21 -1 159 -6t172 -7q42 -4 72 -11q52 -13 52 -71q0 -8 -1 -16q-10 -25 -32.5 -41t-50.5 -17q-152 -13 -299 -13q-52 0 -104 2q-19 1 -24 -3.5t-7 -22.5 q-7 -88 -7 -179q0 -61 3 -123q3 -52 16 -96q10 -41 38 -72.5t67 -45.5q41 -17 92 -28q103 -22 198 -22q15 0 31 1q80 4 121 4q30 3 54 -15.5t28 -48.5v-9q0 -50 -60 -71q-50 -17 -100 -23q-82 -8 -151 -8q-115 0 -198 21q-35 9 -58 16q-216 71 -257 309q-14 92 -14 187 q0 31 1 61z" />
<glyph unicode="&#xc9;" horiz-adv-x="1226" d="M73 477q7 184 39 550q12 137 31 380q0 3 9 85q2 10 2 21q0 31 -18 59q-16 24 -10.5 52t29.5 45q13 10 27 14q27 8 53 9q137 8 461 25v-2q68 2 203 7t203 8q19 1 36 1q26 0 48 -2q25 -1 44 -17.5t24 -41.5q5 -26 -9 -50t-39 -32q-68 -23 -148 -29q-339 -40 -671 -41h-9.5 h-12h-9.5q-23 -1 -27.5 -6.5t-6.5 -30.5q-4 -86 -13 -257t-13 -257q-1 -12 -4 -43t-4 -48q-1 -36 4.5 -42.5t39.5 -8.5q21 -1 159 -6t172 -7q42 -4 72 -11q52 -13 52 -71q0 -8 -1 -16q-10 -25 -32.5 -41t-50.5 -17q-152 -13 -299 -13q-52 0 -104 2q-19 1 -24 -3.5t-7 -22.5 q-7 -88 -7 -179q0 -61 3 -123q3 -52 16 -96q10 -41 38 -72.5t67 -45.5q41 -17 92 -28q103 -22 198 -22q15 0 31 1q80 4 121 4q30 3 54 -15.5t28 -48.5v-9q0 -50 -60 -71q-50 -17 -100 -23q-82 -8 -151 -8q-115 0 -198 21q-35 9 -58 16q-216 71 -257 309q-14 92 -14 187 q0 31 1 61z" />
<glyph unicode="&#xc8;" horiz-adv-x="1226" d="M73 477q7 184 39 550q12 137 31 380q0 3 9 85q2 10 2 21q0 31 -18 59q-16 24 -10.5 52t29.5 45q13 10 27 14q27 8 53 9q137 8 461 25v-2q68 2 203 7t203 8q19 1 36 1q26 0 48 -2q25 -1 44 -17.5t24 -41.5q5 -26 -9 -50t-39 -32q-68 -23 -148 -29q-339 -40 -671 -41h-9.5 h-12h-9.5q-23 -1 -27.5 -6.5t-6.5 -30.5q-4 -86 -13 -257t-13 -257q-1 -12 -4 -43t-4 -48q-1 -36 4.5 -42.5t39.5 -8.5q21 -1 159 -6t172 -7q42 -4 72 -11q52 -13 52 -71q0 -8 -1 -16q-10 -25 -32.5 -41t-50.5 -17q-152 -13 -299 -13q-52 0 -104 2q-19 1 -24 -3.5t-7 -22.5 q-7 -88 -7 -179q0 -61 3 -123q3 -52 16 -96q10 -41 38 -72.5t67 -45.5q41 -17 92 -28q103 -22 198 -22q15 0 31 1q80 4 121 4q30 3 54 -15.5t28 -48.5v-9q0 -50 -60 -71q-50 -17 -100 -23q-82 -8 -151 -8q-115 0 -198 21q-35 9 -58 16q-216 71 -257 309q-14 92 -14 187 q0 31 1 61z" />
<glyph unicode="F" horiz-adv-x="1026" d="M82 1049q-1 21 -1 42q0 163 35 320q28 138 120 241q110 116 272 149q74 17 148 17q99 0 199 -30q82 -22 142 -77q44 -36 44 -94q0 -37 -34 -61q-19 -14 -41 -14q-15 0 -31 7q-12 4 -21 11q-64 44 -136 58q-56 10 -124 11q-20 0 -41 -1q-80 -4 -156 -43q-95 -47 -134 -143 q-26 -66 -35 -134q-17 -143 -17 -283q0 -59 3 -117q1 -17 6.5 -22t24.5 -5q96 0 287.5 -7t204.5 -20q26 -25 31.5 -55t-16.5 -55q-39 -36 -56 -36h-1h-13q-42 0 -206 -4q-200 -4 -224 -6q-18 -1 -23 -6.5t-5 -23.5q0 -58 2 -170q1 -58 1 -115q0 -207 -9 -394q0 -10 -2 -30 q-4 -35 -30 -58t-61 -23q-33 1 -58.5 22t-32.5 53q-4 27 -3 54q2 150 5 194q5 82 5 182q0 110 -6 242q-1 28 -6.5 184.5t-6.5 239.5z" />
<glyph unicode="G" horiz-adv-x="1368" d="M68 444q-4 80 -4 159t4 158q13 210 31 332q23 194 90 375q34 90 98 176q97 129 260 156q48 8 95 8q198 0 366 -151q51 -45 94 -109q52 -72 63 -159q1 -10 1 -20q0 -29 -9 -59q-10 -33 -36 -51q-25 -17 -55 -11q-29 6 -44 34q-11 18 -10 38q1 6 1 13q0 54 -51 118 q-112 141 -253 171q-35 8 -71 8l-99 -16q-74 -25 -117 -89q-63 -93 -94 -204q-40 -143 -56 -282q-28 -219 -28 -441q0 -81 4 -163q3 -91 23 -183q10 -41 34 -85q23 -44 63.5 -70t89.5 -27q21 -1 41 -1q155 0 292 74q113 59 147 178q37 112 39 232q0 12 -2.5 22t-9.5 19.5 t-11 14.5t-14.5 15.5l-13.5 13.5t-27 6q-7 0 -29 0.5t-34 1.5q-30 1 -52.5 21.5t-26.5 50.5t14 55t47 33q34 11 73 13h20q142 0 272 -26q3 -1 28 -9q52 -13 85 -55t35 -96q1 -17 1 -33q0 -22 -2 -42q-7 -68 -25 -218q-8 -58 -8 -115q0 -86 18 -171q6 -27 5 -52 q-1 -22 -14.5 -40t-34.5 -25q-14 -5 -26 -5q-27 0 -48 23q-22 22 -33 53q-32 83 -39 162q-2 15 -4.5 45.5t-3.5 45.5q-10 -3 -10 -4q-10 -20 -14 -31q-59 -148 -195 -228q-140 -83 -304 -101q-49 -8 -97 -8q-41 0 -81 6q-76 10 -140.5 49.5t-107.5 102.5q-62 92 -81 208 q-16 91 -19 189z" />
<glyph unicode="H" horiz-adv-x="1488" d="M30 794q12 39 52 57q10 5 29 11t26 9q19 7 22.5 11.5t4.5 25.5v66q4 475 7 716q0 33 6 66q5 34 31 56q24 21 55 21h6q34 -1 59 -24.5t27 -58.5q9 -86 9 -144q0 -1 3 -605q0 -34 1 -52q1 -25 8 -31.5t31 -3.5q30 3 84.5 7.5t72.5 6.5q54 5 119.5 7.5t105.5 2.5h51h74h110 h52q26 1 32 7t6 32v148t1 148q2 216 4 328q2 67 9 111q5 32 29.5 54t57.5 22t57.5 -21.5t29.5 -53.5q9 -55 9 -111q1 -100 2.5 -299t2.5 -299q-1 -10 -1 -20q0 -28 8 -57q31 -5 74 -14q31 -4 50.5 -28t17.5 -55q-4 -31 -26 -52t-53 -22h-20t-20 -1q-19 -1 -23.5 -7t-5.5 -26 q-1 -18 -1 -53v-624q1 -20 -1 -59q-3 -40 -32 -67q-28 -26 -66 -26h-3q-40 1 -69 28.5t-30 67.5q-1 10 -1 59v618v26q1 26 0 26q-1 25 -7 31t-32 6q-287 -3 -322 -4q-51 -2 -107.5 -5.5t-126 -8.5t-107.5 -7q-5 0 -15 -1.5t-11 -1.5q-17 -2 -17 -17q-2 -40 -2 -59v-631 q1 -15 1 -28q0 -20 -2 -38q-3 -39 -31 -65t-67 -27h-3q-37 0 -65 25q-29 26 -33 64q0 8 -1 22.5t-1.5 26.5t-0.5 23v578v46q-1 32 -6.5 37.5t-36.5 5.5q-18 0 -27 1q-36 5 -55 36q-13 21 -13 43q0 12 4 24z" />
<glyph unicode="I" horiz-adv-x="575" d="M19 -51q-3 23 8 44t31 32q15 8 34 13q34 10 50 14q10 15 6 31q-11 88 -11 181q0 21 1 43q0 285 21 618l15 255t15 254l6 78q2 7 -3 12t-11 5q-7 1 -21 1h-21q-30 1 -52.5 21t-26.5 50t14 54.5t48 31.5q44 12 88 18q133 19 254 19q28 1 59 -10q21 -7 33.5 -26t11.5 -41 q1 -22 -11.5 -39.5t-33.5 -25.5q-19 -7 -41 -12q-18 -3 -52.5 -9t-49.5 -9q1 -24 1 -50t-1 -52q-2 -52 -7 -119t-6 -98q-2 -41 -5 -87.5t-7 -103t-6 -87.5q-8 -114 -12 -224q0 -12 -3.5 -96.5t-3.5 -107.5t-2 -93q-1 -52 -2 -86v-20q0 -38 1.5 -93.5t4.5 -103.5 q1 -15 1 -22.5t2 -16t2.5 -12t4 -7.5t5.5 -4.5t9 -2t11 -1t15.5 0.5h18.5q61 0 73 -1q24 0 42 -15.5t23 -38.5q6 -25 -5 -48t-34 -33q-22 -10 -34 -12q-172 -38 -345 -38h-9q-21 0 -31 2q-24 6 -40.5 24t-21.5 43z" />
<glyph unicode="&#xce;" horiz-adv-x="575" d="M19 -51q-3 23 8 44t31 32q15 8 34 13q34 10 50 14q10 15 6 31q-11 88 -11 181q0 21 1 43q0 285 21 618l15 255t15 254l6 78q2 7 -3 12t-11 5q-7 1 -21 1h-21q-30 1 -52.5 21t-26.5 50t14 54.5t48 31.5q44 12 88 18q133 19 254 19q28 1 59 -10q21 -7 33.5 -26t11.5 -41 q1 -22 -11.5 -39.5t-33.5 -25.5q-19 -7 -41 -12q-18 -3 -52.5 -9t-49.5 -9q1 -24 1 -50t-1 -52q-2 -52 -7 -119t-6 -98q-2 -41 -5 -87.5t-7 -103t-6 -87.5q-8 -114 -12 -224q0 -12 -3.5 -96.5t-3.5 -107.5t-2 -93q-1 -52 -2 -86v-20q0 -38 1.5 -93.5t4.5 -103.5 q1 -15 1 -22.5t2 -16t2.5 -12t4 -7.5t5.5 -4.5t9 -2t11 -1t15.5 0.5h18.5q61 0 73 -1q24 0 42 -15.5t23 -38.5q6 -25 -5 -48t-34 -33q-22 -10 -34 -12q-172 -38 -345 -38h-9q-21 0 -31 2q-24 6 -40.5 24t-21.5 43z" />
<glyph unicode="&#xcd;" horiz-adv-x="575" d="M19 -51q-3 23 8 44t31 32q15 8 34 13q34 10 50 14q10 15 6 31q-11 88 -11 181q0 21 1 43q0 285 21 618l15 255t15 254l6 78q2 7 -3 12t-11 5q-7 1 -21 1h-21q-30 1 -52.5 21t-26.5 50t14 54.5t48 31.5q44 12 88 18q133 19 254 19q28 1 59 -10q21 -7 33.5 -26t11.5 -41 q1 -22 -11.5 -39.5t-33.5 -25.5q-19 -7 -41 -12q-18 -3 -52.5 -9t-49.5 -9q1 -24 1 -50t-1 -52q-2 -52 -7 -119t-6 -98q-2 -41 -5 -87.5t-7 -103t-6 -87.5q-8 -114 -12 -224q0 -12 -3.5 -96.5t-3.5 -107.5t-2 -93q-1 -52 -2 -86v-20q0 -38 1.5 -93.5t4.5 -103.5 q1 -15 1 -22.5t2 -16t2.5 -12t4 -7.5t5.5 -4.5t9 -2t11 -1t15.5 0.5h18.5q61 0 73 -1q24 0 42 -15.5t23 -38.5q6 -25 -5 -48t-34 -33q-22 -10 -34 -12q-172 -38 -345 -38h-9q-21 0 -31 2q-24 6 -40.5 24t-21.5 43z" />
<glyph unicode="&#xcc;" horiz-adv-x="575" d="M19 -51q-3 23 8 44t31 32q15 8 34 13q34 10 50 14q10 15 6 31q-11 88 -11 181q0 21 1 43q0 285 21 618l15 255t15 254l6 78q2 7 -3 12t-11 5q-7 1 -21 1h-21q-30 1 -52.5 21t-26.5 50t14 54.5t48 31.5q44 12 88 18q133 19 254 19q28 1 59 -10q21 -7 33.5 -26t11.5 -41 q1 -22 -11.5 -39.5t-33.5 -25.5q-19 -7 -41 -12q-18 -3 -52.5 -9t-49.5 -9q1 -24 1 -50t-1 -52q-2 -52 -7 -119t-6 -98q-2 -41 -5 -87.5t-7 -103t-6 -87.5q-8 -114 -12 -224q0 -12 -3.5 -96.5t-3.5 -107.5t-2 -93q-1 -52 -2 -86v-20q0 -38 1.5 -93.5t4.5 -103.5 q1 -15 1 -22.5t2 -16t2.5 -12t4 -7.5t5.5 -4.5t9 -2t11 -1t15.5 0.5h18.5q61 0 73 -1q24 0 42 -15.5t23 -38.5q6 -25 -5 -48t-34 -33q-22 -10 -34 -12q-172 -38 -345 -38h-9q-21 0 -31 2q-24 6 -40.5 24t-21.5 43z" />
<glyph unicode="J" horiz-adv-x="1290" d="M7 152q-11 49 -11 99q0 64 19 129q4 14 14 40q18 43 60 61q22 10 45 10q20 0 41 -8q40 -9 54 -48q5 -14 5 -27q0 -24 -16 -46q-36 -54 -36 -113t36 -121q40 -70 155 -81q15 -1 29 -1q93 0 176 45q93 45 160 123t96 177q34 120 44 238q8 74 12 149.5t7 192t4 149.5v352 q0 32 -1 48q0 8 -6 14q-5 5 -13 5q-53 0 -79 -1q-38 -1 -109 -5h-13q-36 0 -71 9q-25 7 -42.5 27.5t-19.5 46.5t11.5 49t37.5 34q24 10 47 11q36 5 80.5 9t69.5 5.5t85.5 4t73.5 3.5q149 7 199 12q19 3 42 3q12 0 25 -1q23 -1 42.5 -15t27.5 -36q9 -19 9 -37q0 -29 -23 -54 q-27 -30 -66 -41q-40 -11 -87 -11h-15q-23 -2 -23 -23q0 -6 0.5 -18t0.5 -18q2 -136 2 -262q0 -201 -5 -375q-3 -230 -47 -445q-29 -153 -121.5 -279t-229.5 -199q-121 -69 -266 -75q-14 -1 -27 -1q-126 0 -232 69q-123 81 -151 226z" />
<glyph unicode="K" horiz-adv-x="1198" d="M100 464v293.5v260.5q0 244 5 466q0 2 9 151q0 13 5 30q7 25 28 40t47 15t47 -15t28 -40q6 -28 6 -42q10 -119 10 -248q1 -70 1 -212.5v-212.5q0 -32 2 -48q2 -26 24 -16q11 5 65 32q98 48 286 158q119 67 201.5 176.5t114.5 242.5q26 87 34 184q0 2 0.5 6t0.5 6 q8 76 74 82q31 3 56.5 -16t31.5 -51q11 -45 11 -88q0 -34 -7 -68q-26 -179 -114 -337q-78 -137 -211 -232q-210 -150 -446 -253q-25 -7 -47 -23v-8q29 -41 117 -173.5t140 -201.5q16 -22 57 -71q116 -136 289 -177q39 -7 66 -7q29 0 43 -2q45 -8 60 -55q4 -13 4 -25 q0 -29 -24 -53q-34 -38 -84 -43q-18 -2 -35 -2q-37 0 -73 9q-121 28 -225.5 94.5t-181.5 164.5q-94 121 -185 269l-12 18t-11 18q-5 10 -14 6q-5 -3 -5 -9q-1 -16 -2 -49v-394q0 -36 -1 -54q-4 -35 -30 -59t-62 -24t-62 24.5t-29 60.5q-1 12 -1 36q-1 156 -1 466z" />
<glyph unicode="L" horiz-adv-x="1097" d="M66 378q0 107 20 321q17 193 28 301q2 22 33 320q5 49 14.5 147.5t14.5 147.5q1 13 5 39t5 39q3 25 19 44q25 34 64 34q5 0 11 -1q45 -5 65 -49q13 -25 11 -52v-63.5t-2 -63.5q-7 -74 -21 -221t-20 -220q-6 -77 -21 -223.5t-25 -264.5t-13 -224v-32q0 -64 6 -126 q0 -2 0.5 -6t0.5 -6q2 -54 37.5 -94t88.5 -50q46 -13 96 -15q35 -1 70 -1l226 10l46 7l47 5q19 2 39.5 5t46 7t39.5 6q24 4 55 4q26 -2 46 -18.5t28 -42.5q7 -24 -2 -48t-29 -39q-25 -20 -65 -30q-79 -25 -172 -35q-44 -4 -69.5 -7t-31.5 -4t-29.5 -3.5t-70.5 -5.5 q-43 -4 -85 -4q-108 0 -216 24q-37 9 -58 17q-90 30 -150.5 104t-70.5 168q-12 84 -12 165q0 17 1 34z" />
<glyph unicode="M" horiz-adv-x="1429" d="M86 -39q-1 6 1 18q7 23 9 49q0 8 1 19q0 19 -2 45q-3 38 -3 50q-2 90 -2 204q0 138 3 312q1 38 2.5 108.5t2.5 128t1 108.5q1 202 27 521q1 15 3 32t5 38t4 32q6 49 36 90q18 31 53 37q7 1 14 1q26 0 49 -17q26 -20 42 -44q52 -69 104 -156q84 -141 160 -250 q34 -53 75 -95q13 -13 21 -13t20 11q43 41 83 96q33 47 83 120q138 204 208 306q7 11 55 71q23 27 51 43q26 14 53 14q16 0 32 -5q45 -14 66 -54q18 -35 20 -76q1 -25 1 -50q0 -67 -6 -138q-3 -35 -9 -105.5t-9 -105.5q-36 -462 -36 -466q-14 -247 -14 -424q0 -110 -2 -328 q0 -62 -22 -118q-11 -29 -36 -48q-26 -18 -53 -18q-19 0 -38 8q-50 22 -55 75q-2 13 1 30q7 26 11 57t4.5 52.5t1 59t0.5 54.5q1 48 1.5 101.5t1 118.5t0.5 101q1 200 23 448q12 141 37 460q0 5 -2 17q-6 0 -10.5 -2.5t-6.5 -4t-6 -8.5l-4 -7l-114 -171q-64 -101 -137 -186 q-36 -44 -84 -79q-47 -38 -107 -38h-1q-59 0 -106 36q-62 46 -102 103q-51 68 -141 212q-5 9 -15.5 24t-12.5 19q-4 -1 -7 -2.5t-4 -4t-1.5 -4.5t-0.5 -5v-4q-7 -95 -8 -114q-15 -480 -15 -867q0 -166 3 -316q1 -23 1 -44q0 -32 -2 -59q-1 -30 -18.5 -53.5t-45.5 -34.5 q-21 -9 -40 -9q-25 0 -50 15q-44 27 -42 79z" />
<glyph unicode="N" horiz-adv-x="1490" d="M72 8q-2 70 -2 134q0 128 7 230q4 54 9 153t7 138q5 89 17 266t17 266q9 160 28 302q1 5 3.5 25.5t3.5 27t4 24t5.5 27t6.5 23.5t9 26t11 23q2 4 5 11.5t5 10.5q11 20 32 31t44 9q46 -5 66 -48q10 -24 11 -46q76 -481 230 -966q60 -192 155 -374q30 -58 75 -118 q18 -25 46 -48q22 -22 52 -21q33 2 52 24q36 35 58 70q54 83 85 174q56 167 84 340q43 239 56 476q4 68 4 137q0 85 -6 172q-4 65 -6 133q-2 24 9 47q17 42 60 45h7q39 0 61 -33q16 -25 21 -57q18 -94 22 -174q6 -92 6 -184q0 -227 -37 -450q-34 -223 -89 -427 q-31 -114 -85 -221q-37 -72 -88 -137q-31 -40 -69 -68q-56 -44 -128 -51q-12 -1 -24 -1q-58 0 -111 28q-71 36 -117 96q-56 69 -97 146q-118 217 -189 459q-15 49 -40.5 138t-33.5 117q-5 29 -23 50q-1 -11 -2 -26.5t-1 -27.5t-2 -22q-6 -71 -6 -73q-35 -647 -39 -830 q1 -29 -8 -59q-9 -27 -32 -43t-51 -15q-29 0 -51 17.5t-28 45.5q-7 31 -9 78z" />
<glyph unicode="O" horiz-adv-x="1224" d="M62 385q-15 111 -15 221q0 252 80 497q44 146 119 285q56 108 145 193q42 41 97 72q37 21 83 21h11q39 0 66 -27q34 -35 84 -40q104 -22 183 -101q117 -117 175 -266q60 -150 76 -305q11 -83 11 -161v-13q1 -20 1 -40q0 -203 -74 -395q-41 -114 -119.5 -206.5 t-183.5 -152.5q-111 -65 -234 -75q-22 -2 -43 -2q-84 0 -162 34q-98 43 -162 129q-113 145 -138 332zM244 443q13 -110 60 -203q25 -53 74 -102q58 -55 136 -58h17q73 0 142 31q131 59 206 181q46 77 69 148q43 142 43 294v14q-2 149 -32 285q-36 159 -128 286 q-93 125 -228 125q-21 0 -44 -3q-3 0 -7.5 -1t-8.5 -1.5t-8 -0.5q-28 0 -46 -24q-41 -50 -74 -111q-74 -138 -118 -291q-62 -203 -62 -411q0 -79 9 -158z" />
<glyph unicode="&#xd6;" horiz-adv-x="1224" d="M62 385q-15 111 -15 221q0 252 80 497q44 146 119 285q56 108 145 193q42 41 97 72q37 21 83 21h11q39 0 66 -27q34 -35 84 -40q104 -22 183 -101q117 -117 175 -266q60 -150 76 -305q11 -83 11 -161v-13q1 -20 1 -40q0 -203 -74 -395q-41 -114 -119.5 -206.5 t-183.5 -152.5q-111 -65 -234 -75q-22 -2 -43 -2q-84 0 -162 34q-98 43 -162 129q-113 145 -138 332zM244 443q13 -110 60 -203q25 -53 74 -102q58 -55 136 -58h17q73 0 142 31q131 59 206 181q46 77 69 148q43 142 43 294v14q-2 149 -32 285q-36 159 -128 286 q-93 125 -228 125q-21 0 -44 -3q-3 0 -7.5 -1t-8.5 -1.5t-8 -0.5q-28 0 -46 -24q-41 -50 -74 -111q-74 -138 -118 -291q-62 -203 -62 -411q0 -79 9 -158z" />
<glyph unicode="&#xd5;" horiz-adv-x="1224" d="M62 385q-15 111 -15 221q0 252 80 497q44 146 119 285q56 108 145 193q42 41 97 72q37 21 83 21h11q39 0 66 -27q34 -35 84 -40q104 -22 183 -101q117 -117 175 -266q60 -150 76 -305q11 -83 11 -161v-13q1 -20 1 -40q0 -203 -74 -395q-41 -114 -119.5 -206.5 t-183.5 -152.5q-111 -65 -234 -75q-22 -2 -43 -2q-84 0 -162 34q-98 43 -162 129q-113 145 -138 332zM244 443q13 -110 60 -203q25 -53 74 -102q58 -55 136 -58h17q73 0 142 31q131 59 206 181q46 77 69 148q43 142 43 294v14q-2 149 -32 285q-36 159 -128 286 q-93 125 -228 125q-21 0 -44 -3q-3 0 -7.5 -1t-8.5 -1.5t-8 -0.5q-28 0 -46 -24q-41 -50 -74 -111q-74 -138 -118 -291q-62 -203 -62 -411q0 -79 9 -158z" />
<glyph unicode="&#xd4;" horiz-adv-x="1224" d="M62 385q-15 111 -15 221q0 252 80 497q44 146 119 285q56 108 145 193q42 41 97 72q37 21 83 21h11q39 0 66 -27q34 -35 84 -40q104 -22 183 -101q117 -117 175 -266q60 -150 76 -305q11 -83 11 -161v-13q1 -20 1 -40q0 -203 -74 -395q-41 -114 -119.5 -206.5 t-183.5 -152.5q-111 -65 -234 -75q-22 -2 -43 -2q-84 0 -162 34q-98 43 -162 129q-113 145 -138 332zM244 443q13 -110 60 -203q25 -53 74 -102q58 -55 136 -58h17q73 0 142 31q131 59 206 181q46 77 69 148q43 142 43 294v14q-2 149 -32 285q-36 159 -128 286 q-93 125 -228 125q-21 0 -44 -3q-3 0 -7.5 -1t-8.5 -1.5t-8 -0.5q-28 0 -46 -24q-41 -50 -74 -111q-74 -138 -118 -291q-62 -203 -62 -411q0 -79 9 -158z" />
<glyph unicode="&#xd3;" horiz-adv-x="1224" d="M62 385q-15 111 -15 221q0 252 80 497q44 146 119 285q56 108 145 193q42 41 97 72q37 21 83 21h11q39 0 66 -27q34 -35 84 -40q104 -22 183 -101q117 -117 175 -266q60 -150 76 -305q11 -83 11 -161v-13q1 -20 1 -40q0 -203 -74 -395q-41 -114 -119.5 -206.5 t-183.5 -152.5q-111 -65 -234 -75q-22 -2 -43 -2q-84 0 -162 34q-98 43 -162 129q-113 145 -138 332zM244 443q13 -110 60 -203q25 -53 74 -102q58 -55 136 -58h17q73 0 142 31q131 59 206 181q46 77 69 148q43 142 43 294v14q-2 149 -32 285q-36 159 -128 286 q-93 125 -228 125q-21 0 -44 -3q-3 0 -7.5 -1t-8.5 -1.5t-8 -0.5q-28 0 -46 -24q-41 -50 -74 -111q-74 -138 -118 -291q-62 -203 -62 -411q0 -79 9 -158z" />
<glyph unicode="&#xd2;" horiz-adv-x="1224" d="M62 385q-15 111 -15 221q0 252 80 497q44 146 119 285q56 108 145 193q42 41 97 72q37 21 83 21h11q39 0 66 -27q34 -35 84 -40q104 -22 183 -101q117 -117 175 -266q60 -150 76 -305q11 -83 11 -161v-13q1 -20 1 -40q0 -203 -74 -395q-41 -114 -119.5 -206.5 t-183.5 -152.5q-111 -65 -234 -75q-22 -2 -43 -2q-84 0 -162 34q-98 43 -162 129q-113 145 -138 332zM244 443q13 -110 60 -203q25 -53 74 -102q58 -55 136 -58h17q73 0 142 31q131 59 206 181q46 77 69 148q43 142 43 294v14q-2 149 -32 285q-36 159 -128 286 q-93 125 -228 125q-21 0 -44 -3q-3 0 -7.5 -1t-8.5 -1.5t-8 -0.5q-28 0 -46 -24q-41 -50 -74 -111q-74 -138 -118 -291q-62 -203 -62 -411q0 -79 9 -158z" />
<glyph unicode="P" horiz-adv-x="1206" d="M3 1401q8 40 31 74q70 119 177.5 204.5t239.5 125.5q93 32 190 35h18q99 0 191 -41q100 -45 171 -129q149 -168 160 -394q3 -34 3 -68q0 -144 -52 -281q-52 -136 -155 -240.5t-239 -159.5q-93 -40 -191 -40q-50 0 -101 10q-10 -16 -7 -38q0 -198 1 -297q0 -13 8 -109 q2 -13 2 -27q0 -38 -13 -75q-9 -28 -33 -45t-53 -16q-28 -2 -51 14t-31 42q-10 37 -10 80q-10 172 -10 356v62q1 108 1.5 323.5t1.5 323.5q1 63 3.5 178t3.5 153v40q0 9 -6 15q-7 7 -15 -4q-14 -15 -39.5 -45.5t-28.5 -34.5q-7 -7 -19 -22.5t-18 -23.5q-12 -15 -35 -22 q-14 -6 -28 -6q-22 0 -41 16q-27 22 -27 54q0 6 1 12zM439 1132q0 -84 0.5 -225.5t0.5 -206.5q0 -28 9 -37.5t38 -15.5q23 -4 45 -3q41 0 80 12q88 24 166.5 86t127 135.5t66.5 144.5q25 95 25 193q0 20 -1 40q-9 173 -119 301q-45 55 -111 83q-53 22 -110 22q-14 0 -28 -1 q-85 -8 -158 -37q-24 -9 -28.5 -15.5t-1.5 -31.5q8 -82 8 -164q0 -41 -2 -82q-2 -40 -4 -108t-3 -90z" />
<glyph unicode="Q" horiz-adv-x="1411" d="M54 827q54 346 249 632q83 126 203 223q57 48 134 82q52 21 99 24q63 5 108 14q27 5 54 5q78 0 152 -39q117 -58 180 -174q62 -111 84 -233q37 -185 37 -373q0 -82 -7 -164q-15 -196 -74 -385q-59 -201 -201 -356q-25 -23 -8 -53q54 -129 127 -269q6 -11 17.5 -34.5 t17.5 -35.5q13 -25 8 -53q-7 -36 -38 -52q-16 -8 -32 -8l-32 8q-23 13 -39 37q-92 123 -163 269q-18 36 -30 59q-79 -31 -166 -49q-47 -9 -94 -9q-63 0 -125 15q-109 27 -198 95q-94 71 -158 170.5t-90 214.5q-30 125 -30 254q0 91 15 185zM238 500q20 -147 110 -266 q120 -151 296 -151q23 0 48 3q63 8 116 33q9 3 13.5 11.5t1.5 17.5q-1 6 -4 17t-5 17q-40 140 -59 210q-9 29 -10 54q-4 27 10.5 49.5t40.5 30.5q25 9 50.5 1.5t41.5 -28.5q19 -27 30 -59q8 -23 24 -68.5t24 -68.5q7 -21 18 -26q26 23 43 62q98 190 122 403q15 119 15 243 q0 65 -4 132q-6 127 -35 239q-18 74 -54 141q-29 54 -80 90q-14 10 -20.5 9t-19.5 -13l-4 -4q-23 -24 -53 -26q-33 -2 -56 20q-5 4 -14.5 11t-14.5 11q-20 15 -46 5q-5 -2 -24 -9.5t-25.5 -10.5t-23 -10t-24 -11.5t-22 -12t-23 -13.5t-20 -14.5t-20.5 -18t-18 -19.5l-33 -36 q-169 -200 -245 -455q-58 -169 -58 -340q0 -75 11 -150z" />
<glyph unicode="R" horiz-adv-x="1402" d="M74 -24q4 42 5.5 120t2.5 92q20 551 31 842q10 246 16 369q8 143 14 218q3 36 13 65q9 27 32.5 42.5t51.5 12.5q27 -1 47 -19.5t25 -44.5q5 -30 5 -57v-9q-1 -46 -3.5 -139t-3.5 -140q-3 -24 6 -47q6 11 16.5 30t15.5 28q83 165 215 291q96 90 216 154q113 58 238 67 q16 1 31 1q71 0 141 -26q181 -69 201 -271q2 -25 2 -50q0 -114 -45 -223q-79 -198 -228 -347q-194 -198 -439 -330q-108 -59 -201 -98q-8 -2 -11 -9t2 -14q6 -9 7 -10q114 -148 241 -272q39 -39 101 -77q35 -22 73 -23q14 0 29 4q56 13 85 59q5 7 14.5 23t15.5 23 q14 21 37.5 29t47.5 0t37.5 -29.5t11.5 -46.5q-3 -52 -29 -98q-50 -94 -149 -132q-52 -20 -104 -20q-47 0 -95 17q-71 25 -127 69q-123 95 -216 212q-23 27 -47.5 59t-54.5 71t-47 61q-8 9 -15 7t-7 -15q-4 -67 -5 -103q-2 -50 -5.5 -149t-5.5 -148q0 -4 1 -8q0 -30 -14 -56 q-15 -29 -45 -43t-62 -7q-32 8 -52 35t-17 60zM313 706q-7 -42 0.5 -49.5t49.5 7.5q159 61 298 146q194 114 347 281q113 120 169 277q25 71 29 143q0 1 -1 14.5t-2 20.5q-9 62 -40 89t-86 36q-23 4 -47 4l-73 -9q-108 -28 -195 -94q-174 -125 -268 -323 q-130 -258 -181 -543z" />
<glyph unicode="S" horiz-adv-x="1112" d="M42 470q13 45 40 82q14 19 36.5 25.5t44.5 -1.5t35.5 -28t12.5 -43q0 -21 -6 -42q-9 -42 -9 -84v-11q0 -67 32 -126q35 -64 98 -101q74 -47 161 -59q30 -4 59 -5q57 0 112 16q78 20 121 86q43 58 49 129l2 24q0 58 -27 111q-38 78 -85 133q-93 116 -212 242 q-91 91 -186 207q-79 100 -125 200q-26 57 -37 121q-5 28 -5 54q0 90 53 166q44 66 109.5 112.5t142.5 65.5q67 20 134 20q83 0 164 -31q96 -36 181 -96q86 -59 128 -151q21 -42 21 -88q0 -9 -1 -18q-2 -25 -18 -44.5t-40 -25.5q-26 -6 -50 6.5t-35 37.5q0 1 -1 2.5t-1 2.5 q-24 93 -143 156q-67 38 -147 55q-30 6 -59 6q-41 0 -81 -12q-70 -21 -122 -72q-32 -28 -42 -68q-4 -16 -4 -32q0 -25 10 -49q17 -51 49 -104q65 -108 147 -192q21 -23 75 -79.5t91.5 -98t71.5 -81.5q75 -89 107 -132q54 -69 89 -151q36 -85 36 -173q0 -58 -16 -118 q-40 -148 -165 -241q-109 -76 -244 -82h-48h-10q-189 0 -341 113q-106 82 -148 210q-22 67 -22 133q0 61 18 123z" />
<glyph unicode="T" horiz-adv-x="966" d="M-30 1659q-3 12 2 23q7 26 27.5 43t47.5 18l78 6q267 6 560 6q213 0 440 -3q36 0 72 -6q26 -4 45 -23.5t20 -46.5q0 -27 -18 -47t-44 -25q-29 -5 -66 -7q-137 -10 -411 -16q-17 0 -49 -4q-17 -2 -17 -20v-18q1 -251 1 -755t1 -755q1 -21 -2 -48q-4 -34 -29.5 -57.5 t-60.5 -25.5h-3q-32 0 -58 22q-27 22 -32 57q-4 32 -4 56v10v733v294v220v74q0 34 2.5 96t2.5 86q0 15 -4.5 20.5t-18.5 7.5h-18q-54 2 -164 5.5t-164 4.5q-38 0 -77 11q-48 17 -59 64z" />
<glyph unicode="U" horiz-adv-x="1341" d="M77 794q-1 58 -1 120q0 247 16 547q1 31 13 133q4 32 11 53q8 24 28 39t45 17h6q50 0 74 -46q14 -29 14 -60v-71q0 -58 -2 -67q-5 -53 -14 -357q-5 -88 -5 -178q0 -121 9 -247q9 -164 49 -317q34 -119 115 -211q75 -86 187 -86q36 0 77 9q46 14 82 49q58 54 99 129 q69 124 104 265q74 271 109 558q18 183 18 359q0 63 -2 126q-1 38 -1 58v15q2 33 25 57.5t56 27.5q32 2 57.5 -16t35.5 -48q9 -30 8 -60q2 -60 2 -123q0 -144 -11 -301q-26 -333 -148 -766q-37 -132 -109 -255q-41 -72 -97 -132q-130 -137 -301 -137q-62 0 -130 18 q-126 33 -210 136q-137 165 -171 376q-33 184 -38 386z" />
<glyph unicode="&#xdb;" horiz-adv-x="1341" d="M77 794q-1 58 -1 120q0 247 16 547q1 31 13 133q4 32 11 53q8 24 28 39t45 17h6q50 0 74 -46q14 -29 14 -60v-71q0 -58 -2 -67q-5 -53 -14 -357q-5 -88 -5 -178q0 -121 9 -247q9 -164 49 -317q34 -119 115 -211q75 -86 187 -86q36 0 77 9q46 14 82 49q58 54 99 129 q69 124 104 265q74 271 109 558q18 183 18 359q0 63 -2 126q-1 38 -1 58v15q2 33 25 57.5t56 27.5q32 2 57.5 -16t35.5 -48q9 -30 8 -60q2 -60 2 -123q0 -144 -11 -301q-26 -333 -148 -766q-37 -132 -109 -255q-41 -72 -97 -132q-130 -137 -301 -137q-62 0 -130 18 q-126 33 -210 136q-137 165 -171 376q-33 184 -38 386z" />
<glyph unicode="&#xda;" horiz-adv-x="1341" d="M77 794q-1 58 -1 120q0 247 16 547q1 31 13 133q4 32 11 53q8 24 28 39t45 17h6q50 0 74 -46q14 -29 14 -60v-71q0 -58 -2 -67q-5 -53 -14 -357q-5 -88 -5 -178q0 -121 9 -247q9 -164 49 -317q34 -119 115 -211q75 -86 187 -86q36 0 77 9q46 14 82 49q58 54 99 129 q69 124 104 265q74 271 109 558q18 183 18 359q0 63 -2 126q-1 38 -1 58v15q2 33 25 57.5t56 27.5q32 2 57.5 -16t35.5 -48q9 -30 8 -60q2 -60 2 -123q0 -144 -11 -301q-26 -333 -148 -766q-37 -132 -109 -255q-41 -72 -97 -132q-130 -137 -301 -137q-62 0 -130 18 q-126 33 -210 136q-137 165 -171 376q-33 184 -38 386z" />
<glyph unicode="&#xd9;" horiz-adv-x="1341" d="M77 794q-1 58 -1 120q0 247 16 547q1 31 13 133q4 32 11 53q8 24 28 39t45 17h6q50 0 74 -46q14 -29 14 -60v-71q0 -58 -2 -67q-5 -53 -14 -357q-5 -88 -5 -178q0 -121 9 -247q9 -164 49 -317q34 -119 115 -211q75 -86 187 -86q36 0 77 9q46 14 82 49q58 54 99 129 q69 124 104 265q74 271 109 558q18 183 18 359q0 63 -2 126q-1 38 -1 58v15q2 33 25 57.5t56 27.5q32 2 57.5 -16t35.5 -48q9 -30 8 -60q2 -60 2 -123q0 -144 -11 -301q-26 -333 -148 -766q-37 -132 -109 -255q-41 -72 -97 -132q-130 -137 -301 -137q-62 0 -130 18 q-126 33 -210 136q-137 165 -171 376q-33 184 -38 386z" />
<glyph unicode="V" horiz-adv-x="1134" d="M8 1674q0 28 18.5 50.5t46.5 27.5q26 6 50 -5.5t36 -35.5q18 -35 29 -73q22 -78 62 -234q44 -169 132.5 -507t132.5 -507q5 -27 20 -56q18 17 20 43q105 387 204 678q12 34 55.5 167.5t76 223.5t64.5 164q14 34 38 69q15 24 42.5 33t53.5 -2q25 -11 38 -36.5t7 -53.5 q-7 -37 -17 -64q-25 -71 -75 -238.5t-75 -237.5q-117 -334 -243 -799q-48 -180 -73 -269q-9 -34 -20 -57q-26 -53 -84 -56q-27 -1 -51 12.5t-38 36.5q-23 41 -36 90q-92 305 -164 589q-29 113 -83.5 320t-74.5 283q-50 190 -87 384q-6 32 -5 60z" />
<glyph unicode="W" horiz-adv-x="1505" d="M45 1629q0 49 8 86q4 23 20 40t38 21q14 4 26 4q33 0 57 -28q15 -17 18 -36q6 -29 7 -46q9 -147 61 -525q50 -376 76 -564q6 -41 19 -116.5t17 -98.5q20 14 25 40q60 181 146 431q10 34 26 71q19 48 72 56q31 6 58 -8t40 -43q16 -36 22 -66q72 -302 180 -584 q6 -16 16 -39q13 6 22 34q86 270 157 590q52 231 94 485q8 51 21 145t19 131q3 31 13 56q11 28 37.5 43.5t57.5 12.5t53 -24t27 -51q3 -24 -2 -52q-36 -303 -103 -625q-81 -389 -158 -644q-22 -71 -82 -254q-14 -45 -37 -80q-36 -55 -92 -61q-6 -1 -12 0q-49 0 -90 42 q-27 29 -48 67q-35 66 -61 139q-64 168 -109 320q-9 27 -18 57q-8 -4 -13 -9t-6.5 -8.5t-3 -11t-2.5 -9.5q-21 -64 -44.5 -136t-52 -160t-44.5 -136q-22 -70 -35 -105q-7 -22 -21 -42q-28 -40 -79 -40h-7q-54 3 -79 53q-13 29 -18 60q-94 563 -96 574q-16 106 -65 477 q-25 193 -41 346q-8 72 -14 221z" />
<glyph unicode="X" horiz-adv-x="1212" d="M-23 -34q8 42 31 72q101 155 188 290q48 75 144 224.5t144 224.5q0 1 2 2.5t2 2.5q15 15 15 32q0 14 -10 28q-17 34 -59.5 124t-67.5 138q-54 107 -198 375q-5 9 -36 56q-16 21 -16 47.5t17 47.5q17 20 41.5 27.5t50.5 -0.5q39 -12 59 -41q27 -36 51 -75 q146 -235 259 -473q2 -4 6 -14.5t7 -16t8 -13t12 -12.5q12 4 19 11.5t15 23t10 18.5q46 73 137.5 218.5t137.5 217.5q46 75 96 147q15 24 40 45q20 18 46.5 20t48.5 -14q22 -15 31.5 -40.5t2.5 -50.5q-7 -26 -25 -54q-97 -163 -103 -172q-55 -87 -165.5 -261t-165.5 -261 q-8 -14 -13 -20q-13 -13 -14.5 -32t8.5 -35q15 -30 68.5 -139t77.5 -155.5t69.5 -131t86.5 -150.5t86 -129q25 -29 29 -65q1 -6 1 -12q0 -32 -24 -54q-25 -24 -56 -24q-6 0 -11 1q-45 3 -75 35q-36 38 -51 60q-101 147 -188 318q-20 39 -60 119t-60 119q-8 25 -30 47 q-25 -21 -36 -47q-214 -328 -373 -552q-38 -54 -72 -98q-22 -32 -61 -34h-7q-31 0 -53 24q-18 21 -18 47q0 7 1 14z" />
<glyph unicode="Y" horiz-adv-x="1222" d="M46 218q4 69 30 129q7 17 18 34q25 38 56 38q10 0 21 -4q24 -9 36.5 -31.5t7.5 -47.5q-1 -7 -2.5 -15t-3.5 -18l-3 -15q-5 -27 -5 -54q0 -25 4 -50q8 -66 55.5 -112.5t113.5 -51.5q25 -3 49 -3q88 0 168 43q92 46 156 127t90 182q28 104 66 316q2 10 63 389q0 18 -1 27 q-8 -10 -22.5 -27t-20.5 -25q-104 -130 -236 -222q-103 -76 -227 -106q-34 -9 -67 -9q-50 0 -99 20q-81 35 -124 112q-39 67 -52 137q-18 93 -18 182q0 32 2 64q9 158 48 313q19 72 53 143q9 22 28.5 35.5t43.5 12.5q32 0 53 -24t18 -55q-3 -24 -13 -53q-49 -170 -63 -350 q-5 -41 -5 -82q0 -85 20 -168q8 -37 33 -75q23 -39 68 -39h4q35 1 73 14q130 52 229 148q174 157 275 419q17 42 30 82q21 50 52 95q11 18 30.5 26.5t39.5 3.5q21 -3 36 -17.5t20 -34.5q8 -29 8 -56q0 -7 -1 -15q-7 -140 -12 -186q-45 -427 -139 -903q-16 -87 -44 -175 q-111 -325 -446 -426q-60 -17 -119 -17q-92 0 -179 42q-68 30 -114.5 84t-65.5 117q-16 54 -16 111v21z" />
<glyph unicode="&#xdd;" horiz-adv-x="1222" d="M46 218q4 69 30 129q7 17 18 34q25 38 56 38q10 0 21 -4q24 -9 36.5 -31.5t7.5 -47.5q-1 -7 -2.5 -15t-3.5 -18l-3 -15q-5 -27 -5 -54q0 -25 4 -50q8 -66 55.5 -112.5t113.5 -51.5q25 -3 49 -3q88 0 168 43q92 46 156 127t90 182q28 104 66 316q2 10 63 389q0 18 -1 27 q-8 -10 -22.5 -27t-20.5 -25q-104 -130 -236 -222q-103 -76 -227 -106q-34 -9 -67 -9q-50 0 -99 20q-81 35 -124 112q-39 67 -52 137q-18 93 -18 182q0 32 2 64q9 158 48 313q19 72 53 143q9 22 28.5 35.5t43.5 12.5q32 0 53 -24t18 -55q-3 -24 -13 -53q-49 -170 -63 -350 q-5 -41 -5 -82q0 -85 20 -168q8 -37 33 -75q23 -39 68 -39h4q35 1 73 14q130 52 229 148q174 157 275 419q17 42 30 82q21 50 52 95q11 18 30.5 26.5t39.5 3.5q21 -3 36 -17.5t20 -34.5q8 -29 8 -56q0 -7 -1 -15q-7 -140 -12 -186q-45 -427 -139 -903q-16 -87 -44 -175 q-111 -325 -446 -426q-60 -17 -119 -17q-92 0 -179 42q-68 30 -114.5 84t-65.5 117q-16 54 -16 111v21z" />
<glyph unicode="Z" horiz-adv-x="1333" d="M-2 42q-5 18 -4 35q0 26 10 51q12 34 39 69q38 49 77 92q153 166 407 409q236 227 368 378q93 103 165 217q40 60 59 126q7 25 0.5 38.5t-31.5 21.5q-42 14 -83 17q-45 3 -89 3q-163 0 -325 -43q-160 -36 -311 -99q-11 -5 -35 -11q-12 -3 -22 -3q-31 0 -54 28 q-15 18 -16.5 42t10.5 44q18 33 50 51q60 36 109 54q196 77 408 112q91 16 181 16l163 -13q68 -11 126 -42q56 -29 86 -83q26 -47 26 -99q0 -9 -1 -18q-5 -74 -36 -140q-53 -110 -127 -207q-111 -144 -238 -274q-125 -131 -350 -346q-142 -135 -310 -315q-24 -19 -35 -50 q38 -14 85 -14q100 0 133 3q47 4 134.5 9t126.5 8q225 17 442 69q22 5 59 11q29 3 54 -9q34 -19 39 -58q1 -6 1 -12q0 -31 -24 -53q-30 -27 -69 -38q-119 -42 -233 -64q-168 -29 -349 -40q-131 -11 -263 -11q-53 0 -106 2q-67 3 -131 26q-37 12 -68 38q-36 28 -48 72z" />
<glyph unicode="a" horiz-adv-x="907" d="M59 407q25 106 103 183q98 94 215 94q57 0 119 -22q59 -22 111 -62q3 -2 10.5 -9.5t14 -11.5t14.5 -4q6 6 7.5 12.5t0 16.5t-1.5 12q-2 74 -26 136q-28 74 -84 102q-33 16 -73 15q-29 0 -62 -8q-78 -22 -142 -78q-30 -26 -44 -64q-7 -21 -24 -34t-39 -15q-28 -3 -51.5 14 t-28.5 45q-3 13 -3 26q0 26 11 51q25 68 79 113q101 92 234 121q37 8 74 7q71 0 137 -28q102 -44 158 -139q49 -86 64 -182q13 -78 13 -158q0 -53 -5 -108q-8 -95 -29 -283q-2 -25 -9 -47q-15 -44 -59 -52q-8 -1 -16 -1q-34 0 -58 28q-13 15 -25 34q-21 -8 -40 -26 q-74 -53 -164 -65q-27 -4 -55 -3q-62 0 -122 20q-117 37 -176 145q-39 70 -39 145q0 39 11 80zM247 375q-8 -22 -9 -44q0 -23 10 -47q18 -45 62 -67q42 -22 93 -22h8q69 0 124 36q7 4 20.5 13t22 14.5t22 10t26.5 5.5q6 0 8.5 7t0.5 13q-5 14 -16 32q-55 82 -131 133 q-22 15 -47 25q-26 12 -54 12q-17 0 -35 -4q-46 -12 -72 -53q-18 -28 -33 -64z" />
<glyph unicode="&#xe4;" horiz-adv-x="907" d="M59 407q25 106 103 183q98 94 215 94q57 0 119 -22q59 -22 111 -62q3 -2 10.5 -9.5t14 -11.5t14.5 -4q6 6 7.5 12.5t0 16.5t-1.5 12q-2 74 -26 136q-28 74 -84 102q-33 16 -73 15q-29 0 -62 -8q-78 -22 -142 -78q-30 -26 -44 -64q-7 -21 -24 -34t-39 -15q-28 -3 -51.5 14 t-28.5 45q-3 13 -3 26q0 26 11 51q25 68 79 113q101 92 234 121q37 8 74 7q71 0 137 -28q102 -44 158 -139q49 -86 64 -182q13 -78 13 -158q0 -53 -5 -108q-8 -95 -29 -283q-2 -25 -9 -47q-15 -44 -59 -52q-8 -1 -16 -1q-34 0 -58 28q-13 15 -25 34q-21 -8 -40 -26 q-74 -53 -164 -65q-27 -4 -55 -3q-62 0 -122 20q-117 37 -176 145q-39 70 -39 145q0 39 11 80zM247 375q-8 -22 -9 -44q0 -23 10 -47q18 -45 62 -67q42 -22 93 -22h8q69 0 124 36q7 4 20.5 13t22 14.5t22 10t26.5 5.5q6 0 8.5 7t0.5 13q-5 14 -16 32q-55 82 -131 133 q-22 15 -47 25q-26 12 -54 12q-17 0 -35 -4q-46 -12 -72 -53q-18 -28 -33 -64z" />
<glyph unicode="&#xe3;" horiz-adv-x="907" d="M59 407q25 106 103 183q98 94 215 94q57 0 119 -22q59 -22 111 -62q3 -2 10.5 -9.5t14 -11.5t14.5 -4q6 6 7.5 12.5t0 16.5t-1.5 12q-2 74 -26 136q-28 74 -84 102q-33 16 -73 15q-29 0 -62 -8q-78 -22 -142 -78q-30 -26 -44 -64q-7 -21 -24 -34t-39 -15q-28 -3 -51.5 14 t-28.5 45q-3 13 -3 26q0 26 11 51q25 68 79 113q101 92 234 121q37 8 74 7q71 0 137 -28q102 -44 158 -139q49 -86 64 -182q13 -78 13 -158q0 -53 -5 -108q-8 -95 -29 -283q-2 -25 -9 -47q-15 -44 -59 -52q-8 -1 -16 -1q-34 0 -58 28q-13 15 -25 34q-21 -8 -40 -26 q-74 -53 -164 -65q-27 -4 -55 -3q-62 0 -122 20q-117 37 -176 145q-39 70 -39 145q0 39 11 80zM247 375q-8 -22 -9 -44q0 -23 10 -47q18 -45 62 -67q42 -22 93 -22h8q69 0 124 36q7 4 20.5 13t22 14.5t22 10t26.5 5.5q6 0 8.5 7t0.5 13q-5 14 -16 32q-55 82 -131 133 q-22 15 -47 25q-26 12 -54 12q-17 0 -35 -4q-46 -12 -72 -53q-18 -28 -33 -64z" />
<glyph unicode="&#xe2;" horiz-adv-x="907" d="M59 407q25 106 103 183q98 94 215 94q57 0 119 -22q59 -22 111 -62q3 -2 10.5 -9.5t14 -11.5t14.5 -4q6 6 7.5 12.5t0 16.5t-1.5 12q-2 74 -26 136q-28 74 -84 102q-33 16 -73 15q-29 0 -62 -8q-78 -22 -142 -78q-30 -26 -44 -64q-7 -21 -24 -34t-39 -15q-28 -3 -51.5 14 t-28.5 45q-3 13 -3 26q0 26 11 51q25 68 79 113q101 92 234 121q37 8 74 7q71 0 137 -28q102 -44 158 -139q49 -86 64 -182q13 -78 13 -158q0 -53 -5 -108q-8 -95 -29 -283q-2 -25 -9 -47q-15 -44 -59 -52q-8 -1 -16 -1q-34 0 -58 28q-13 15 -25 34q-21 -8 -40 -26 q-74 -53 -164 -65q-27 -4 -55 -3q-62 0 -122 20q-117 37 -176 145q-39 70 -39 145q0 39 11 80zM247 375q-8 -22 -9 -44q0 -23 10 -47q18 -45 62 -67q42 -22 93 -22h8q69 0 124 36q7 4 20.5 13t22 14.5t22 10t26.5 5.5q6 0 8.5 7t0.5 13q-5 14 -16 32q-55 82 -131 133 q-22 15 -47 25q-26 12 -54 12q-17 0 -35 -4q-46 -12 -72 -53q-18 -28 -33 -64z" />
<glyph unicode="&#xe1;" horiz-adv-x="907" d="M59 407q25 106 103 183q98 94 215 94q57 0 119 -22q59 -22 111 -62q3 -2 10.5 -9.5t14 -11.5t14.5 -4q6 6 7.5 12.5t0 16.5t-1.5 12q-2 74 -26 136q-28 74 -84 102q-33 16 -73 15q-29 0 -62 -8q-78 -22 -142 -78q-30 -26 -44 -64q-7 -21 -24 -34t-39 -15q-28 -3 -51.5 14 t-28.5 45q-3 13 -3 26q0 26 11 51q25 68 79 113q101 92 234 121q37 8 74 7q71 0 137 -28q102 -44 158 -139q49 -86 64 -182q13 -78 13 -158q0 -53 -5 -108q-8 -95 -29 -283q-2 -25 -9 -47q-15 -44 -59 -52q-8 -1 -16 -1q-34 0 -58 28q-13 15 -25 34q-21 -8 -40 -26 q-74 -53 -164 -65q-27 -4 -55 -3q-62 0 -122 20q-117 37 -176 145q-39 70 -39 145q0 39 11 80zM247 375q-8 -22 -9 -44q0 -23 10 -47q18 -45 62 -67q42 -22 93 -22h8q69 0 124 36q7 4 20.5 13t22 14.5t22 10t26.5 5.5q6 0 8.5 7t0.5 13q-5 14 -16 32q-55 82 -131 133 q-22 15 -47 25q-26 12 -54 12q-17 0 -35 -4q-46 -12 -72 -53q-18 -28 -33 -64z" />
<glyph unicode="&#xe0;" horiz-adv-x="907" d="M59 407q25 106 103 183q98 94 215 94q57 0 119 -22q59 -22 111 -62q3 -2 10.5 -9.5t14 -11.5t14.5 -4q6 6 7.5 12.5t0 16.5t-1.5 12q-2 74 -26 136q-28 74 -84 102q-33 16 -73 15q-29 0 -62 -8q-78 -22 -142 -78q-30 -26 -44 -64q-7 -21 -24 -34t-39 -15q-28 -3 -51.5 14 t-28.5 45q-3 13 -3 26q0 26 11 51q25 68 79 113q101 92 234 121q37 8 74 7q71 0 137 -28q102 -44 158 -139q49 -86 64 -182q13 -78 13 -158q0 -53 -5 -108q-8 -95 -29 -283q-2 -25 -9 -47q-15 -44 -59 -52q-8 -1 -16 -1q-34 0 -58 28q-13 15 -25 34q-21 -8 -40 -26 q-74 -53 -164 -65q-27 -4 -55 -3q-62 0 -122 20q-117 37 -176 145q-39 70 -39 145q0 39 11 80zM247 375q-8 -22 -9 -44q0 -23 10 -47q18 -45 62 -67q42 -22 93 -22h8q69 0 124 36q7 4 20.5 13t22 14.5t22 10t26.5 5.5q6 0 8.5 7t0.5 13q-5 14 -16 32q-55 82 -131 133 q-22 15 -47 25q-26 12 -54 12q-17 0 -35 -4q-46 -12 -72 -53q-18 -28 -33 -64z" />
<glyph unicode="b" horiz-adv-x="901" d="M80 163v1056q0 43 4 127q2 32 8 54q7 25 27.5 42.5t46.5 19.5q28 2 52 -12.5t35 -40.5q11 -31 10 -59q4 -58 5 -119t1 -151v-119q-1 -9 -1 -19q0 -27 8 -56q8 8 23.5 23t23.5 22q70 70 170 86q21 3 42 3q40 0 78 -12q59 -19 103 -62q73 -68 99 -165q35 -120 35 -240 q0 -134 -44 -267q-26 -84 -84 -146q-93 -102 -230 -110q-18 -1 -36 -1q-122 0 -199 61q-23 -19 -29 -23q-26 -18 -53 -18q-21 0 -42 10q-50 24 -52 80q-1 12 -1 36zM269.5 298q3.5 -7 25.5 -16q24 -11 49 -34q48 -47 113 -47q13 0 26 2q80 11 121 81q23 39 33 78 q22 85 24 186q0 64 -15 144q-10 67 -47 116q-21 30 -57 38q-11 3 -22 2q-24 0 -46 -13q-21 -12 -43 -32q-53 -50 -84 -118q-60 -130 -62 -281v-6q0 -35 -11 -71q-8 -22 -4.5 -29z" />
<glyph unicode="c" horiz-adv-x="808" d="M43 409q5 257 170 415q125 121 300 121q47 0 97 -9q75 -11 127 -66q34 -33 34 -80q0 -37 -29 -59q-20 -15 -41 -15q-13 0 -28 6q-10 2 -17 7q-8 7 -16.5 12t-15.5 9t-17 6t-17 4t-18.5 2.5t-17 0.5t-18.5 -1t-17.5 -1.5t-18.5 -2t-18 -1.5q-84 -11 -143 -73 q-84 -85 -102 -202q-7 -34 -7 -68q0 -32 6 -65q11 -63 62 -100q56 -43 126 -49q12 -1 23 -2q57 0 109 27q24 12 56 35q6 4 17 13t17 13q21 17 47.5 16t46.5 -19q19 -19 22 -45.5t-11 -48.5q-19 -33 -44 -58q-96 -98 -236 -112q-25 -3 -49 -3q-116 0 -216 68 q-72 45 -114.5 118.5t-47.5 158.5q-1 16 -1 48z" />
<glyph unicode="d" horiz-adv-x="940" d="M54 336q-9 60 -9 116q0 241 164 417q119 125 289 139q19 2 38 2q49 0 93 -15q2 -1 38 -11q7 26 7 50q0 8 -1 16q1 50 3 151t4 152q-2 27 8 54t33 43t51 15q30 -2 52.5 -22t26.5 -50q7 -54 9 -109q2 -46 2 -139v-940q0 -41 -1 -49q0 -42 -33 -69q-25 -21 -56 -21 q-9 0 -18 2q-10 1 -19 1q-27 0 -51 -11q-90 -39 -188 -44q-17 -1 -33 -1q-144 0 -264 86q-59 41 -97 103t-48 134zM233 410q7 -148 152 -198q55 -19 117 -19q65 0 139 21q22 6 26.5 12.5t4.5 29.5q1 73 1 219v212q1 20 -5 42q-18 53 -67 79q-32 17 -66 17q-18 0 -37 -5 q-118 -22 -188 -123q-78 -116 -78 -253q0 -17 1 -34z" />
<glyph unicode="e" horiz-adv-x="774" d="M48 331q-4 37 -4 73q0 188 100 357q38 69 98.5 118t136.5 71q37 12 76 13q22 0 44 -5q61 -11 110 -49q76 -57 106 -145q15 -38 15 -76q0 -22 -5 -44q-13 -60 -58 -104q-49 -52 -117 -78q-53 -20 -109 -21q-15 0 -31 2q-85 2 -162 40q-16 -49 -16 -96q0 -66 31 -130 q29 -58 87 -74q23 -6 46 -7q33 0 64 15q49 20 80 63q3 4 13 18t16 21q17 18 41 22.5t47 -6.5q21 -11 30.5 -33t4.5 -45q-3 -14 -9 -28q-34 -86 -108 -140.5t-166 -60.5q-20 -2 -38 -2q-168 0 -264 154q-52 83 -59 177zM293 637q33 -26 79 -32q21 -3 41 -3q23 0 43 4 q57 5 92 52q12 14 9 33q-10 50 -54 72q-24 12 -47 12l-43 -10q-86 -39 -120 -128z" />
<glyph unicode="&#xea;" horiz-adv-x="774" d="M48 331q-4 37 -4 73q0 188 100 357q38 69 98.5 118t136.5 71q37 12 76 13q22 0 44 -5q61 -11 110 -49q76 -57 106 -145q15 -38 15 -76q0 -22 -5 -44q-13 -60 -58 -104q-49 -52 -117 -78q-53 -20 -109 -21q-15 0 -31 2q-85 2 -162 40q-16 -49 -16 -96q0 -66 31 -130 q29 -58 87 -74q23 -6 46 -7q33 0 64 15q49 20 80 63q3 4 13 18t16 21q17 18 41 22.5t47 -6.5q21 -11 30.5 -33t4.5 -45q-3 -14 -9 -28q-34 -86 -108 -140.5t-166 -60.5q-20 -2 -38 -2q-168 0 -264 154q-52 83 -59 177zM293 637q33 -26 79 -32q21 -3 41 -3q23 0 43 4 q57 5 92 52q12 14 9 33q-10 50 -54 72q-24 12 -47 12l-43 -10q-86 -39 -120 -128z" />
<glyph unicode="&#xe9;" horiz-adv-x="774" d="M48 331q-4 37 -4 73q0 188 100 357q38 69 98.5 118t136.5 71q37 12 76 13q22 0 44 -5q61 -11 110 -49q76 -57 106 -145q15 -38 15 -76q0 -22 -5 -44q-13 -60 -58 -104q-49 -52 -117 -78q-53 -20 -109 -21q-15 0 -31 2q-85 2 -162 40q-16 -49 -16 -96q0 -66 31 -130 q29 -58 87 -74q23 -6 46 -7q33 0 64 15q49 20 80 63q3 4 13 18t16 21q17 18 41 22.5t47 -6.5q21 -11 30.5 -33t4.5 -45q-3 -14 -9 -28q-34 -86 -108 -140.5t-166 -60.5q-20 -2 -38 -2q-168 0 -264 154q-52 83 -59 177zM293 637q33 -26 79 -32q21 -3 41 -3q23 0 43 4 q57 5 92 52q12 14 9 33q-10 50 -54 72q-24 12 -47 12l-43 -10q-86 -39 -120 -128z" />
<glyph unicode="&#xe8;" horiz-adv-x="774" d="M48 331q-4 37 -4 73q0 188 100 357q38 69 98.5 118t136.5 71q37 12 76 13q22 0 44 -5q61 -11 110 -49q76 -57 106 -145q15 -38 15 -76q0 -22 -5 -44q-13 -60 -58 -104q-49 -52 -117 -78q-53 -20 -109 -21q-15 0 -31 2q-85 2 -162 40q-16 -49 -16 -96q0 -66 31 -130 q29 -58 87 -74q23 -6 46 -7q33 0 64 15q49 20 80 63q3 4 13 18t16 21q17 18 41 22.5t47 -6.5q21 -11 30.5 -33t4.5 -45q-3 -14 -9 -28q-34 -86 -108 -140.5t-166 -60.5q-20 -2 -38 -2q-168 0 -264 154q-52 83 -59 177zM293 637q33 -26 79 -32q21 -3 41 -3q23 0 43 4 q57 5 92 52q12 14 9 33q-10 50 -54 72q-24 12 -47 12l-43 -10q-86 -39 -120 -128z" />
<glyph unicode="f" horiz-adv-x="583" d="M78 601q-2 62 -2 124q0 139 12 275q12 182 70 349q28 77 70 141q30 44 73 80q63 49 133 49q27 0 54 -7q102 -25 150 -114q19 -31 19 -66q0 -8 -1 -16q-5 -47 -49 -63q-23 -8 -45.5 -1.5t-36.5 25.5q-4 5 -10.5 15.5t-9.5 14.5q-18 27 -50 29q-33 2 -52 -26 q-33 -39 -50 -82q-37 -86 -53 -174q-25 -133 -31 -276q0 -2 -0.5 -6t-0.5 -6q0 -21 5.5 -27t25.5 -5q39 1 58.5 0.5t58.5 -3t58 -3.5q29 0 59 -15q40 -21 40 -66t-42 -65q-21 -10 -46 -12q-74 -9 -148 -9h-15q-25 0 -37 -1q-8 0 -13 -5q-6 -6 -6 -14q-1 -18 -1 -54 q0 -41 1 -171v-114v-85q0 -56 -8 -120q-4 -36 -25.5 -58t-51.5 -23q-31 1 -54 23t-26 54q-8 53 -11 96q-8 116 -11 206q-1 35 -1 206z" />
<glyph unicode="g" horiz-adv-x="862" d="M44 254q-3 32 -3 63q0 125 48 243q60 147 181 251q76 68 179 84q26 4 50 4q85 0 157 -50q28 -24 64 -25q40 0 63 -28q20 -25 20 -61v-10q-4 -59 -14 -163q-16 -190 -19 -242q-3 -61 -7.5 -182t-7.5 -182q-6 -189 -34 -368q-8 -48 -15 -71q-61 -198 -271 -226 q-26 -4 -51 -4q-52 0 -104 17q-77 29 -117 95q-28 46 -28 105q0 25 5 52q4 24 18 45q11 20 33 30t45 5t38.5 -22.5t18.5 -41.5q1 -7 0.5 -24t-0.5 -24q-2 -28 17 -48q18 -20 47 -18q28 -3 60 2q93 15 110 97q14 59 22 132q24 247 27 460q5 28 -6 52q-84 -86 -92 -94 q-74 -71 -168 -93q-25 -7 -50 -7q-35 0 -70 13q-58 23 -92 75q-49 73 -54 159zM227 323v-12q0 -52 16 -98q8 -18 18 -22.5t30 2.5q79 33 127 100q117 150 183 326q11 36 1.5 54.5t-43.5 36.5q-24 13 -50 13q-19 0 -39 -7q-61 -18 -105 -68q-129 -138 -138 -325z" />
<glyph unicode="h" horiz-adv-x="999" d="M82 703q4 368 7 552q0 15 5 85q1 16 6 35q7 27 29.5 43.5t50.5 15.5t49 -18.5t27 -44.5q4 -24 4 -36q8 -163 8 -194q1 -91 1.5 -258.5t0.5 -220.5v-27.5t1 -27.5q0 -4 2 -6.5t6 -1.5q5 0 10 5q9 13 25 41q78 130 193 224q58 49 125 74q34 14 73 14q11 0 22 -1 q55 -4 98.5 -36t63.5 -82q28 -67 34 -135q10 -82 10 -165q0 -54 -4 -107q-3 -42 -9 -126.5t-9 -127.5q-2 -19 -20 -151q-3 -25 -17 -45q-25 -37 -68 -37h-4q-48 2 -69 44q-14 25 -14 58q0 108 5 163q19 178 19 362v50q-1 43 -10 102q-8 52 -28 58t-56 -19q-76 -47 -135 -121 q-64 -78 -105 -163q-79 -159 -126 -334q-4 -15 -8.5 -43t-5.5 -34q-4 -34 -30 -57.5t-61 -24.5q-37 0 -64 25t-29 62q-1 20 -1 61v570h-2z" />
<glyph unicode="i" horiz-adv-x="344" d="M76 457q4 226 7 339q0 21 3 42q4 32 27 53.5t54 22.5q31 3 56.5 -15.5t33.5 -49.5q8 -37 8 -71v-7q1 -75 1.5 -224t0.5 -224v-212q1 -5 1 -11q0 -27 -13 -54q-13 -25 -37 -39t-52 -13q-29 3 -52 22.5t-30 47.5q-6 26 -6 53v13v327h-2zM113 1079q-13 23 -13 45q0 23 14 47 q26 43 75 43h7q36 -2 62 -28q25 -26 24 -60q0 -38 -26 -65q-26 -26 -62 -27h-4q-51 0 -77 45z" />
<glyph unicode="&#xee;" horiz-adv-x="344" d="M76 457q4 226 7 339q0 21 3 42q4 32 27 53.5t54 22.5q31 3 56.5 -15.5t33.5 -49.5q8 -37 8 -71v-7q1 -75 1.5 -224t0.5 -224v-212q1 -5 1 -11q0 -27 -13 -54q-13 -25 -37 -39t-52 -13q-29 3 -52 22.5t-30 47.5q-6 26 -6 53v13v327h-2zM113 1079q-13 23 -13 45q0 23 14 47 q26 43 75 43h7q36 -2 62 -28q25 -26 24 -60q0 -38 -26 -65q-26 -26 -62 -27h-4q-51 0 -77 45z" />
<glyph unicode="&#xed;" horiz-adv-x="344" d="M76 457q4 226 7 339q0 21 3 42q4 32 27 53.5t54 22.5q31 3 56.5 -15.5t33.5 -49.5q8 -37 8 -71v-7q1 -75 1.5 -224t0.5 -224v-212q1 -5 1 -11q0 -27 -13 -54q-13 -25 -37 -39t-52 -13q-29 3 -52 22.5t-30 47.5q-6 26 -6 53v13v327h-2zM113 1079q-13 23 -13 45q0 23 14 47 q26 43 75 43h7q36 -2 62 -28q25 -26 24 -60q0 -38 -26 -65q-26 -26 -62 -27h-4q-51 0 -77 45z" />
<glyph unicode="&#xec;" horiz-adv-x="344" d="M76 457q4 226 7 339q0 21 3 42q4 32 27 53.5t54 22.5q31 3 56.5 -15.5t33.5 -49.5q8 -37 8 -71v-7q1 -75 1.5 -224t0.5 -224v-212q1 -5 1 -11q0 -27 -13 -54q-13 -25 -37 -39t-52 -13q-29 3 -52 22.5t-30 47.5q-6 26 -6 53v13v327h-2zM113 1079q-13 23 -13 45q0 23 14 47 q26 43 75 43h7q36 -2 62 -28q25 -26 24 -60q0 -38 -26 -65q-26 -26 -62 -27h-4q-51 0 -77 45z" />
<glyph unicode="j" horiz-adv-x="344" d="M-387 -413q-13 41 -13 80q0 55 26 108q12 28 37 47q20 16 41 16q16 0 33 -9q39 -17 39 -59q0 -24 -7 -58q-4 -14 -4 -28q0 -31 19 -59q27 -41 74 -47q10 -2 20 -2q35 0 66 24q49 38 73 94q38 88 49 181q22 194 22 376q0 45 -1 90q-2 36 -6 177.5t-12 221.5q-2 19 -2 36 q0 22 3 42q4 28 24.5 48t49.5 22t52 -13.5t33 -42.5q5 -12 7 -30q19 -121 22 -156q17 -202 17 -405q0 -109 -5 -218q-5 -141 -35 -270q-24 -115 -91 -210q-57 -82 -147 -123q-53 -24 -113.5 -24t-114.5 21t-96.5 65.5t-59.5 104.5zM83 1168q25 46 79 46h7q49 0 75 -41 q15 -24 15 -48q0 -21 -12 -43q-25 -46 -79 -46h-7q-49 0 -75 41q-15 24 -15 48q0 21 12 43z" />
<glyph unicode="k" horiz-adv-x="835" d="M82 152q0 671 1 1006q0 38 7 176q0 15 3 30q6 31 30.5 51t55.5 19q32 0 55.5 -21t27.5 -52q8 -76 10 -163q1 -160 1 -479v-55q0 -14 8 -14q10 0 16 6q89 86 99 98q140 156 244 339q16 28 26 40q17 19 41.5 25t47.5 -3q23 -10 36 -31.5t11 -46.5q-3 -29 -13 -53 q-28 -72 -72 -139q-134 -210 -318 -381q12 -13 18 -19q43 -36 95.5 -83.5t78 -72t96 -93.5t80.5 -79q17 -16 39 -45q18 -22 17.5 -50t-19.5 -48t-46.5 -23.5t-50.5 12.5q-26 14 -50 34q-102 80 -224 195q-40 38 -80 74q-18 16 -56 46q-8 5 -16 5q-8 -1 -8 -14v-48v-164 q2 -31 -9 -60q-10 -29 -34 -46t-54 -16q-28 0 -51 16.5t-33 42.5q-7 19 -9 41q-2 29 -1 43z" />
<glyph unicode="l" horiz-adv-x="356" d="M78 129q0 272 8 582q1 41 3.5 172t6 218.5t8.5 172.5q2 39 8 109q0 3 0.5 7.5t1 8.5t1.5 8q4 30 27.5 49t53.5 19q30 -1 52 -21.5t24 -50.5q9 -75 9 -151q0 -77 -1 -164t-2.5 -193t-2.5 -164h-1q-2 -188 -8 -564q0 -50 -4 -90q-3 -34 -28.5 -58t-60.5 -25q-33 1 -58.5 22 t-32.5 53q-5 35 -4 60z" />
<glyph unicode="m" horiz-adv-x="1259" d="M80 334q0 52 -1 100q0 96 1 178q1 122 4 231q0 24 2 36q5 29 22 49q25 31 67 31q39 0 65 -33q18 -27 28 -47q47 43 97 71q55 31 113 31q10 0 20 -1q91 -8 143 -82q3 -4 28 -40q9 1 15 5t13.5 12t10.5 10q92 78 208 107q30 8 59 8q40 0 78 -15q45 -17 77 -52t45 -81 q20 -79 20 -156q0 -21 -1 -42l-27 -375q-6 -96 -10 -139q-1 -21 -6 -42q-7 -34 -35 -56q-24 -19 -54 -18h-8q-35 2 -59.5 26.5t-25.5 59.5v16q0 47 5 99q4 48 14.5 172t14.5 191q2 32 2 145q0 15 -3 30q-6 43 -23 53t-59 -4q-65 -22 -118 -72l-30 -30q-64 -58 -64 -144 q-3 -79 -19 -174q-4 -35 -17 -71q-10 -28 -34.5 -44.5t-54.5 -15.5q-29 3 -51.5 23.5t-28.5 49.5q-7 28 -2 60q3 19 7.5 57t6.5 57q7 62 7 123q0 33 -2 65q-1 36 -18 76q-10 25 -23.5 30t-37.5 -6q-43 -22 -75 -60q-64 -75 -93 -169q-7 -28 -7 -51q0 -8 1 -15v-375 q1 -19 -3 -55q-4 -34 -30.5 -57t-61.5 -23q-35 1 -60.5 24.5t-29.5 57.5q-2 20 -2 30v231z" />
<glyph unicode="n" horiz-adv-x="884" d="M82 107q0 473 1 710q0 19 3.5 55t4.5 47q4 34 29 57q24 22 56 22h3q34 -1 59 -25t26 -58q-1 -40 14 -79q10 12 24 29t20 24q44 53 104 93q62 40 120 40h6q60 -2 107 -32t76 -79q34 -56 49 -117q22 -82 24 -168q0 -50 -0.5 -149t-0.5 -148q0 -72 2 -218q1 -15 1 -28 q0 -21 -2 -39q-2 -26 -20.5 -46t-44.5 -26t-50 5t-38 34q-21 32 -27 74q-10 58 -11 108v48q0 97 3 195q2 41 2 84q0 78 -7 158q-5 67 -33 128q-16 32 -33.5 36.5t-47.5 -16.5q-45 -33 -80 -83q-53 -75 -90 -150q-44 -85 -51.5 -114.5t-7.5 -121.5v-236q2 -33 -7 -60 q-8 -29 -31 -48t-53 -20t-54.5 15.5t-35.5 45.5q-11 26 -9 53z" />
<glyph unicode="o" horiz-adv-x="894" d="M48 522q6 133 65 252q36 80 103.5 137t153.5 80q23 7 44 8q20 1 60.5 4.5t60.5 4.5h15q72 0 134 -34q70 -38 107 -107q43 -75 52 -159q2 -16 6 -89q-9 -257 -127 -430q-40 -62 -97 -110q-95 -77 -206 -77h-11q-118 4 -214 96q-74 71 -107 166q-40 110 -40 225q0 17 1 33z M262 604q-15 -57 -15 -115q0 -70 22 -140q19 -68 70 -115q43 -37 79 -39h5q34 0 73 25q34 22 59 58q95 125 102 315v17q0 66 -21 129q-9 26 -30.5 44t-49.5 22q-16 4 -31 4q-42 0 -76 -32q-22 -25 -52 -25q-11 0 -24 4q-13 5 -27.5 0t-22.5 -18q-44 -61 -61 -134z" />
<glyph unicode="&#xf6;" horiz-adv-x="894" d="M48 522q6 133 65 252q36 80 103.5 137t153.5 80q23 7 44 8q20 1 60.5 4.5t60.5 4.5h15q72 0 134 -34q70 -38 107 -107q43 -75 52 -159q2 -16 6 -89q-9 -257 -127 -430q-40 -62 -97 -110q-95 -77 -206 -77h-11q-118 4 -214 96q-74 71 -107 166q-40 110 -40 225q0 17 1 33z M262 604q-15 -57 -15 -115q0 -70 22 -140q19 -68 70 -115q43 -37 79 -39h5q34 0 73 25q34 22 59 58q95 125 102 315v17q0 66 -21 129q-9 26 -30.5 44t-49.5 22q-16 4 -31 4q-42 0 -76 -32q-22 -25 -52 -25q-11 0 -24 4q-13 5 -27.5 0t-22.5 -18q-44 -61 -61 -134z" />
<glyph unicode="&#xf5;" horiz-adv-x="894" d="M48 522q6 133 65 252q36 80 103.5 137t153.5 80q23 7 44 8q20 1 60.5 4.5t60.5 4.5h15q72 0 134 -34q70 -38 107 -107q43 -75 52 -159q2 -16 6 -89q-9 -257 -127 -430q-40 -62 -97 -110q-95 -77 -206 -77h-11q-118 4 -214 96q-74 71 -107 166q-40 110 -40 225q0 17 1 33z M262 604q-15 -57 -15 -115q0 -70 22 -140q19 -68 70 -115q43 -37 79 -39h5q34 0 73 25q34 22 59 58q95 125 102 315v17q0 66 -21 129q-9 26 -30.5 44t-49.5 22q-16 4 -31 4q-42 0 -76 -32q-22 -25 -52 -25q-11 0 -24 4q-13 5 -27.5 0t-22.5 -18q-44 -61 -61 -134z" />
<glyph unicode="&#xf4;" horiz-adv-x="894" d="M48 522q6 133 65 252q36 80 103.5 137t153.5 80q23 7 44 8q20 1 60.5 4.5t60.5 4.5h15q72 0 134 -34q70 -38 107 -107q43 -75 52 -159q2 -16 6 -89q-9 -257 -127 -430q-40 -62 -97 -110q-95 -77 -206 -77h-11q-118 4 -214 96q-74 71 -107 166q-40 110 -40 225q0 17 1 33z M262 604q-15 -57 -15 -115q0 -70 22 -140q19 -68 70 -115q43 -37 79 -39h5q34 0 73 25q34 22 59 58q95 125 102 315v17q0 66 -21 129q-9 26 -30.5 44t-49.5 22q-16 4 -31 4q-42 0 -76 -32q-22 -25 -52 -25q-11 0 -24 4q-13 5 -27.5 0t-22.5 -18q-44 -61 -61 -134z" />
<glyph unicode="&#xf3;" horiz-adv-x="894" d="M48 522q6 133 65 252q36 80 103.5 137t153.5 80q23 7 44 8q20 1 60.5 4.5t60.5 4.5h15q72 0 134 -34q70 -38 107 -107q43 -75 52 -159q2 -16 6 -89q-9 -257 -127 -430q-40 -62 -97 -110q-95 -77 -206 -77h-11q-118 4 -214 96q-74 71 -107 166q-40 110 -40 225q0 17 1 33z M262 604q-15 -57 -15 -115q0 -70 22 -140q19 -68 70 -115q43 -37 79 -39h5q34 0 73 25q34 22 59 58q95 125 102 315v17q0 66 -21 129q-9 26 -30.5 44t-49.5 22q-16 4 -31 4q-42 0 -76 -32q-22 -25 -52 -25q-11 0 -24 4q-13 5 -27.5 0t-22.5 -18q-44 -61 -61 -134z" />
<glyph unicode="&#xf2;" horiz-adv-x="894" d="M48 522q6 133 65 252q36 80 103.5 137t153.5 80q23 7 44 8q20 1 60.5 4.5t60.5 4.5h15q72 0 134 -34q70 -38 107 -107q43 -75 52 -159q2 -16 6 -89q-9 -257 -127 -430q-40 -62 -97 -110q-95 -77 -206 -77h-11q-118 4 -214 96q-74 71 -107 166q-40 110 -40 225q0 17 1 33z M262 604q-15 -57 -15 -115q0 -70 22 -140q19 -68 70 -115q43 -37 79 -39h5q34 0 73 25q34 22 59 58q95 125 102 315v17q0 66 -21 129q-9 26 -30.5 44t-49.5 22q-16 4 -31 4q-42 0 -76 -32q-22 -25 -52 -25q-11 0 -24 4q-13 5 -27.5 0t-22.5 -18q-44 -61 -61 -134z" />
<glyph unicode="p" horiz-adv-x="890" d="M82 -502q0 854 1 1281q0 15 8 127q0 8 4 24q13 47 59 60q13 4 25 4q31 0 56 -25q2 -2 13 -17t22 -19q4 3 21.5 14t27.5 17q87 53 183 53q33 0 68 -6q103 -20 168 -101q62 -76 85 -172q24 -85 24 -169q0 -122 -50 -241q-41 -105 -126 -179.5t-194 -101.5q-52 -16 -105 -16 q-25 0 -51 4q-21 6 -42 0q-11 -29 -6 -59q0 -77 -0.5 -230.5t-0.5 -230.5v-20q0 -27 -4 -47q-6 -33 -32 -54t-60 -21q-33 0 -58.5 22t-31.5 55q-5 28 -4 48zM272 439q0 -117 1 -176q0 -24 7.5 -32.5t30.5 -9.5q18 -3 38 -3q33 0 71 8q70 15 124 61t79 113q36 88 36 176 q0 78 -28 156q-11 35 -37 69q-20 28 -55 36q-19 4 -38 4q-28 0 -57 -9q-75 -27 -121.5 -91t-49.5 -144q-1 -53 -1 -158z" />
<glyph unicode="q" horiz-adv-x="870" d="M50 347q-4 39 -4 77q0 83 20 164q30 119 101 218q78 112 199 163q63 28 128 28q48 0 97 -15q13 -6 25 -6q19 0 35 17q17 19 42 23t47 -7q22 -10 36 -30.5t15 -45.5q1 -12 1 -37q0 -157 -3.5 -348t-7 -307t-11 -361.5t-9.5 -320.5v-6q0 -30 -9 -66q-10 -34 -40 -53 q-22 -13 -47 -13q-8 0 -16 1q-31 5 -52.5 28t-24.5 54q-3 24 -1 54q3 84 8 251.5t7 251.5q4 29 -4 63q-12 -7 -31 -18.5t-23 -13.5q-90 -55 -196 -55q-61 0 -116 29t-90 79q-67 92 -76 202zM240 348q7 -46 36 -89q13 -21 36.5 -30t47.5 -3q52 11 89 36q78 55 133 131 q18 24 16 51q0 25 2 76t2 76h2q1 26 2.5 78.5t2.5 78.5q3 31 -26 43q-33 17 -69 17q-27 0 -55 -10q-78 -26 -126 -90q-57 -72 -81 -161q-20 -62 -20 -125q0 -39 8 -79z" />
<glyph unicode="r" horiz-adv-x="755" d="M82 104q0 477 1 716q0 64 9 127q3 37 33 59q23 17 48 17q9 0 18 -2q29 -3 49 -23.5t22 -48.5q3 -19 4.5 -40t2.5 -47t2 -40q0 -2 1.5 -27.5t2.5 -46.5q60 78 61 79q49 63 123 116q75 53 164 53q18 0 37 -2q33 -3 57 -19q20 -12 29.5 -33.5t4.5 -44.5q-4 -23 -21.5 -39 t-40.5 -19q-16 -2 -24 -2q-85 -3 -147 -62q-96 -89 -147 -213q-52 -127 -74 -262q-23 -109 -26 -216v-7q0 -37 -28 -65q-25 -25 -60 -25q-6 0 -13 1q-26 1 -47.5 16.5t-30.5 40.5q-11 31 -10 59z" />
<glyph unicode="s" horiz-adv-x="706" d="M35 303q1 28 19 54q21 35 60 35q5 0 10 -1q44 -5 61 -48q8 -20 13 -45q3 -21 18 -36q89 -82 186 -82h13q5 0 17 2q14 3 19 13q6 11 3 23q-7 25 -22 54q-25 43 -53 76q-24 29 -69.5 82.5t-59.5 69.5q-63 71 -102 162q-23 59 -23 120q0 15 1 29q11 81 70.5 137.5 t141.5 63.5q18 2 35 2q147 0 261 -136q19 -24 29 -57q4 -12 4 -24q0 -20 -11 -38q-13 -27 -45 -35q-30 -8 -55 11q-18 13 -29 28q-47 49 -114 69q-30 9 -58 2q-27 -5 -42 -29q-14 -24 -5 -51q13 -44 41 -84q46 -66 99 -122q62 -69 111 -136q41 -56 63 -119q15 -42 15 -86 v-10q0 -53 -28 -99q-31 -50 -85 -74q-61 -29 -124 -29h-12q-172 11 -296 136q-59 59 -59 140q0 15 2 32z" />
<glyph unicode="t" horiz-adv-x="774" d="M2 908v6q0 47 42 69q23 13 52 13q38 1 109 5q15 1 20 6t7 20q8 93 11 145q6 112 24 223q5 35 22 62q15 24 41.5 34t53.5 2q24 -8 39.5 -28t15.5 -45q1 -20 1 -42t-0.5 -49t-0.5 -42q-4 -49 -10 -157q-4 -59 -5 -91q-1 -23 4.5 -28t29.5 -7q23 -1 69.5 -3t69.5 -3 q34 -2 61 -24q30 -24 30 -59q0 -43 -33 -66q-31 -22 -68 -22h-6q-50 0 -146 -2q-8 1 -17 -6q-7 -6 -7 -16q-1 -12 -2.5 -36.5t-2.5 -36.5q-8 -143 -8 -259q0 -48 1 -92q3 -57 15 -114q6 -38 29 -72q20 -28 53 -25q59 5 95 47q5 5 17 19t20 21q22 20 48 20q11 0 22 -4 q40 -13 50 -53q6 -31 -10 -58q-48 -97 -143 -144q-57 -28 -121 -28h-13q-78 2 -137 57q-58 55 -81 132q-33 112 -34 221q-2 47 -2 94q0 87 7 179q3 29 5 133q2 10 -5 17t-16 6q-14 1 -42.5 1t-42.5 1q-29 0 -59 11q-49 19 -52 68z" />
<glyph unicode="u" horiz-adv-x="763" d="M62 487v115q1 115 21 229q8 46 29 79q17 29 49.5 38t61.5 -8q39 -20 41 -63q0 -30 -3 -60q-11 -108 -11 -216q0 -122 14 -244q6 -65 39 -120q23 -38 52 -38q24 0 52 25q44 41 67 99q42 107 58 228q13 101 13 208v40q0 7 0.5 21.5t0.5 21.5q0 27 11 46q18 38 60 41h7 q36 0 58 -31q18 -28 21 -57q11 -72 11 -143q0 -37 -3 -74q-9 -168 -60 -327q-30 -99 -97 -180q-37 -44 -93 -76q-52 -29 -110 -29q-17 0 -33 2q-76 11 -130 66q-43 44 -68 99q-39 85 -48 181q-7 55 -10 127z" />
<glyph unicode="&#xfb;" horiz-adv-x="763" d="M62 487v115q1 115 21 229q8 46 29 79q17 29 49.5 38t61.5 -8q39 -20 41 -63q0 -30 -3 -60q-11 -108 -11 -216q0 -122 14 -244q6 -65 39 -120q23 -38 52 -38q24 0 52 25q44 41 67 99q42 107 58 228q13 101 13 208v40q0 7 0.5 21.5t0.5 21.5q0 27 11 46q18 38 60 41h7 q36 0 58 -31q18 -28 21 -57q11 -72 11 -143q0 -37 -3 -74q-9 -168 -60 -327q-30 -99 -97 -180q-37 -44 -93 -76q-52 -29 -110 -29q-17 0 -33 2q-76 11 -130 66q-43 44 -68 99q-39 85 -48 181q-7 55 -10 127z" />
<glyph unicode="&#xfa;" horiz-adv-x="763" d="M62 487v115q1 115 21 229q8 46 29 79q17 29 49.5 38t61.5 -8q39 -20 41 -63q0 -30 -3 -60q-11 -108 -11 -216q0 -122 14 -244q6 -65 39 -120q23 -38 52 -38q24 0 52 25q44 41 67 99q42 107 58 228q13 101 13 208v40q0 7 0.5 21.5t0.5 21.5q0 27 11 46q18 38 60 41h7 q36 0 58 -31q18 -28 21 -57q11 -72 11 -143q0 -37 -3 -74q-9 -168 -60 -327q-30 -99 -97 -180q-37 -44 -93 -76q-52 -29 -110 -29q-17 0 -33 2q-76 11 -130 66q-43 44 -68 99q-39 85 -48 181q-7 55 -10 127z" />
<glyph unicode="&#xf9;" horiz-adv-x="763" d="M62 487v115q1 115 21 229q8 46 29 79q17 29 49.5 38t61.5 -8q39 -20 41 -63q0 -30 -3 -60q-11 -108 -11 -216q0 -122 14 -244q6 -65 39 -120q23 -38 52 -38q24 0 52 25q44 41 67 99q42 107 58 228q13 101 13 208v40q0 7 0.5 21.5t0.5 21.5q0 27 11 46q18 38 60 41h7 q36 0 58 -31q18 -28 21 -57q11 -72 11 -143q0 -37 -3 -74q-9 -168 -60 -327q-30 -99 -97 -180q-37 -44 -93 -76q-52 -29 -110 -29q-17 0 -33 2q-76 11 -130 66q-43 44 -68 99q-39 85 -48 181q-7 55 -10 127z" />
<glyph unicode="v" horiz-adv-x="792" d="M25 889q0 23 14.5 42t36.5 26q23 10 47.5 3.5t40.5 -26.5q18 -22 29 -52q34 -94 51 -149q37 -129 133 -395q3 -20 23 -28q93 265 101 287q9 26 105 277q13 40 41 67q22 21 48 21q15 0 31 -7q42 -17 45 -60q3 -26 -5 -54q-6 -24 -19 -64q-26 -85 -192 -561 q-13 -38 -41 -114q-8 -22 -23 -49q-29 -47 -81 -53q-7 -1 -15 -1q-44 0 -77 32q-28 26 -46 63q-26 55 -39 89q-122 314 -201 640q-7 25 -7 53v13z" />
<glyph unicode="w" horiz-adv-x="1077" d="M59 457q12 159 60 309q20 67 61 131q20 31 51 51q26 16 55 13.5t52 -22.5q21 -19 25 -47t-10 -53q-38 -74 -59 -145q-48 -149 -47 -303q0 -43 3 -86q1 -5 2 -21.5t2.5 -24t4.5 -20t8.5 -22t14.5 -17.5q7 3 13.5 7.5t13 10.5t10.5 10t10 12.5t8.5 11.5t9.5 13.5t8 12.5 q92 139 138 296q5 21 17 51q12 25 37 38.5t53 9.5q26 -2 46.5 -19t28.5 -43q10 -33 10 -71q0 -15 0.5 -42t1 -49.5t1.5 -42.5q2 -47 13 -114q0 -1 1.5 -10t2.5 -12l3 -9t6 -9t10 -4q7 -1 13.5 2t10 5.5t11 11.5t8.5 10q40 48 55 106q20 76 23 149q2 27 2 53q0 119 -44 232 q-9 22 -10 42q-1 8 -1 14q0 37 35 58q21 13 41 13q22 0 44 -16q23 -15 38 -38q50 -74 65 -156q12 -70 12 -139q0 -18 -1 -36q-4 -115 -36 -226q-35 -126 -126 -211q-31 -30 -75 -51q-38 -19 -77 -19q-26 0 -52 8q-66 20 -102 82q-7 11 -34 65q-50 -72 -59 -85 q-36 -50 -91 -88q-47 -34 -100 -34q-21 0 -44 5q-80 19 -116 92q-31 59 -44 131q-14 79 -14 156q0 37 3 73z" />
<glyph unicode="x" horiz-adv-x="753" d="M20.5 54q-6.5 25 4.5 47q11 27 25 48q30 47 89 141t89 141q4 6 12 17.5t12 17.5q14 18 2 39q-25 59 -130 307q-10 21 -19 50q-7 22 1 44.5t28 36.5q19 14 42.5 14.5t43.5 -12.5q28 -18 48 -53q18 -28 75 -145q14 -39 44 -80q99 133 122 164q21 27 65 81q17 21 41 35 q21 13 40 13q23 0 45 -18q20 -15 27 -39.5t-3 -47.5q-14 -32 -30 -53q-31 -46 -93.5 -138t-93.5 -138q-16 -24 -24 -35q-12 -16 -2 -34l42 -87q21 -43 63.5 -128l63.5 -127q15 -31 28 -67q9 -24 1 -47.5t-30 -37.5q-21 -14 -46 -11.5t-44 19.5q-34 30 -53 65 q-84 142 -125 214q-14 24 -18 31t-12 8.5t-13.5 -6t-20.5 -28.5q-61 -86 -147 -201q-11 -16 -32 -35q-20 -16 -45 -17t-45 13q-21 14 -27.5 39z" />
<glyph unicode="y" horiz-adv-x="837" d="M56 424q5 176 42 332q11 49 34 91q11 21 31.5 33t44.5 10q26 -2 44 -19.5t20 -42.5q1 -27 -7 -59q-39 -184 -39 -371v-27q0 -53 16 -101q16 -47 45 -62q15 -7 34 -7t43 7q60 19 95 77q32 49 51 101q50 133 85 279q24 90 34 170q3 26 16 46q21 35 58 35q5 0 11 -1 q19 -1 34.5 -13.5t22.5 -30.5q8 -17 8 -42q0 -9 -0.5 -37.5t-1.5 -43.5q-35 -423 -43 -507q-22 -239 -52 -419q-17 -107 -54 -209q-21 -54 -55 -106q-70 -104 -193 -129q-23 -4 -45 -4q-65 0 -123 36q-78 47 -107 134q-8 30 -8 56q0 16 3 30q3 26 20 49q19 29 51 29 q6 0 13 -1q41 -7 52 -45q3 -8 5.5 -25t4.5 -23q11 -43 53 -62q19 -9 39 -9q21 0 42 11q42 21 64 63q37 68 54 147q31 139 44 273q2 15 5 44.5t5 43.5q-23 -7 -42 -26q-87 -65 -196 -65h-7q-88 0 -151 63q-77 79 -91 187q-9 52 -9 116v24z" />
<glyph unicode="&#xfd;" horiz-adv-x="837" d="M56 424q5 176 42 332q11 49 34 91q11 21 31.5 33t44.5 10q26 -2 44 -19.5t20 -42.5q1 -27 -7 -59q-39 -184 -39 -371v-27q0 -53 16 -101q16 -47 45 -62q15 -7 34 -7t43 7q60 19 95 77q32 49 51 101q50 133 85 279q24 90 34 170q3 26 16 46q21 35 58 35q5 0 11 -1 q19 -1 34.5 -13.5t22.5 -30.5q8 -17 8 -42q0 -9 -0.5 -37.5t-1.5 -43.5q-35 -423 -43 -507q-22 -239 -52 -419q-17 -107 -54 -209q-21 -54 -55 -106q-70 -104 -193 -129q-23 -4 -45 -4q-65 0 -123 36q-78 47 -107 134q-8 30 -8 56q0 16 3 30q3 26 20 49q19 29 51 29 q6 0 13 -1q41 -7 52 -45q3 -8 5.5 -25t4.5 -23q11 -43 53 -62q19 -9 39 -9q21 0 42 11q42 21 64 63q37 68 54 147q31 139 44 273q2 15 5 44.5t5 43.5q-23 -7 -42 -26q-87 -65 -196 -65h-7q-88 0 -151 63q-77 79 -91 187q-9 52 -9 116v24z" />
<glyph unicode="z" horiz-adv-x="1021" d="M17 16q-10 22 -10 44q0 26 14 50q22 42 54 73q61 67 213 206q55 49 164 148.5t164 148.5q25 19 39 39q-3 14 -18 12q-166 -2 -218 -8q-58 -6 -116 -6h-29q-24 1 -43 18t-24 41t6 46.5t33 33.5q24 12 51 18q143 30 288 36q16 1 49.5 3t53.5 3t49 0.5t53 -4.5q31 -3 59 -15 q46 -19 65 -65q10 -23 10 -46q0 -22 -9 -45q-14 -42 -48 -77q-72 -76 -111 -111l-351 -318q-13 -12 -28 -26t-32.5 -30.5t-27.5 -25.5l4 -10q9 0 24.5 0.5t28.5 1t25 1.5q184 18 187 18q26 2 95 7.5t118 8t95 2.5h8q30 0 57 -14q36 -17 41 -59q1 -5 1 -11q0 -34 -29 -56 q-30 -24 -66 -27q-136 -18 -204 -26q-208 -24 -313 -32q-124 -16 -242 -17q-30 -1 -60 8q-49 14 -70 62z" />
<glyph unicode="&#xad;" />
<glyph unicode="&#x2000;" horiz-adv-x="926" />
<glyph unicode="&#x2001;" horiz-adv-x="1852" />
<glyph unicode="&#x2002;" horiz-adv-x="926" />
<glyph unicode="&#x2003;" horiz-adv-x="1852" />
<glyph unicode="&#x2004;" horiz-adv-x="617" />
<glyph unicode="&#x2005;" horiz-adv-x="463" />
<glyph unicode="&#x2006;" horiz-adv-x="308" />
<glyph unicode="&#x2007;" horiz-adv-x="308" />
<glyph unicode="&#x2008;" horiz-adv-x="231" />
<glyph unicode="&#x2009;" horiz-adv-x="370" />
<glyph unicode="&#x200a;" horiz-adv-x="102" />
<glyph unicode="&#x202f;" horiz-adv-x="370" />
<glyph unicode="&#x205f;" horiz-adv-x="463" />
<glyph unicode="&#x25fc;" horiz-adv-x="962" d="M0 0v963h963v-963h-963z" />
</font>
</defs>
</svg>
